<svg width="18" height="20" viewBox="0 0 18 20" fill="none" xmlns="http://www.w3.org/2000/svg">
<path d="M3.75 4C3.75 3.44772 4.19772 3 4.75 3H12.75C13.3023 3 13.75 3.44772 13.75 4V6C13.75 6.55228 13.3023 7 12.75 7H4.75C4.19772 7 3.75 6.55228 3.75 6V4ZM5.25 5.5H12.25V4.5H5.25V5.5ZM0.75 2.5C0.75 1.11929 1.86929 0 3.25 0H14.75C16.1307 0 17.25 1.11929 17.25 2.5V16.75C17.25 17.1642 16.9142 17.5 16.5 17.5H2.25C2.25 18.0523 2.69772 18.5 3.25 18.5H16.5C16.9142 18.5 17.25 18.8358 17.25 19.25C17.25 19.6642 16.9142 20 16.5 20H3.25C1.86929 20 0.75 18.8807 0.75 17.5V2.5ZM2.25 16H15.75V2.5C15.75 1.94772 15.3023 1.5 14.75 1.5H3.25C2.69772 1.5 2.25 1.94772 2.25 2.5V16Z" fill="#848484"/>
</svg>
