<svg width="24" height="24" viewBox="0 0 24 24" fill="none" xmlns="http://www.w3.org/2000/svg">
<path d="M10.957 12.3541C10.9105 12.3077 10.8735 12.2525 10.8483 12.1918C10.8231 12.131 10.8102 12.0659 10.8102 12.0001C10.8102 11.9344 10.8231 11.8692 10.8483 11.8085C10.8735 11.7477 10.9105 11.6926 10.957 11.6461L15.543 7.06113C15.8244 6.77986 15.9826 6.39834 15.9827 6.00048C15.9828 5.60262 15.8248 5.22102 15.5435 4.93963C15.2623 4.65823 14.8808 4.50009 14.4829 4.5C14.085 4.49991 13.7034 4.65786 13.422 4.93913L8.83605 9.52513C8.18082 10.1822 7.81287 11.0722 7.81287 12.0001C7.81287 12.928 8.18082 13.8181 8.83605 14.4751L13.422 19.0611C13.7034 19.3424 14.085 19.5003 14.4829 19.5003C14.8808 19.5002 15.2623 19.342 15.5435 19.0606C15.8248 18.7792 15.9828 18.3976 15.9827 17.9998C15.9826 17.6019 15.8244 17.2204 15.543 16.9391L10.957 12.3541Z" fill="#848484"/>
</svg>
