<svg width="13" height="13" viewBox="0 0 13 13" fill="none" xmlns="http://www.w3.org/2000/svg">
<path d="M8.62083 6.49933L12.4998 2.61633C12.7517 2.33009 12.8851 1.95869 12.8729 1.57762C12.8607 1.19656 12.7039 0.834423 12.4343 0.564831C12.1647 0.295239 11.8026 0.138421 11.4215 0.126255C11.0405 0.114089 10.6691 0.247486 10.3828 0.499332L6.49983 4.37833L2.60983 0.487332C2.4705 0.347999 2.30509 0.237475 2.12304 0.162069C1.941 0.0866626 1.74588 0.0478516 1.54883 0.0478516C1.35179 0.0478516 1.15667 0.0866626 0.974624 0.162069C0.792577 0.237475 0.627165 0.347999 0.487833 0.487332C0.3485 0.626664 0.237976 0.792076 0.16257 0.974123C0.0871635 1.15617 0.0483524 1.35129 0.0483524 1.54833C0.0483524 1.74538 0.0871635 1.94049 0.16257 2.12254C0.237976 2.30459 0.3485 2.47 0.487833 2.60933L4.37883 6.49933L0.499833 10.3813C0.347705 10.5173 0.224923 10.6829 0.138996 10.868C0.0530699 11.0531 0.00580712 11.2537 9.88353e-05 11.4577C-0.00560945 11.6617 0.030357 11.8646 0.105798 12.0542C0.181239 12.2438 0.294568 12.416 0.438852 12.5603C0.583135 12.7046 0.755339 12.8179 0.944929 12.8934C1.13452 12.9688 1.33751 13.0048 1.54147 12.9991C1.74544 12.9934 1.9461 12.9461 2.13118 12.8602C2.31625 12.7742 2.48184 12.6515 2.61783 12.4993L6.49983 8.62033L10.3778 12.4993C10.6592 12.7807 11.0409 12.9388 11.4388 12.9388C11.8368 12.9388 12.2184 12.7807 12.4998 12.4993C12.7812 12.2179 12.9393 11.8363 12.9393 11.4383C12.9393 11.0404 12.7812 10.6587 12.4998 10.3773L8.62083 6.49933Z" fill="#374957"/>
</svg>
