<svg width="25" height="25" viewBox="0 0 25 25" fill="none" xmlns="http://www.w3.org/2000/svg">
<g clip-path="url(#clip0_10662_3286)">
<path d="M12.5 5.29196C13.8807 5.29196 15 4.17268 15 2.79198C15 1.41127 13.8807 0.291992 12.5 0.291992C11.1193 0.291992 10 1.41127 10 2.79198C10 4.17268 11.1193 5.29196 12.5 5.29196Z" fill="white"/>
<path d="M12.5 14.7919C13.8807 14.7919 15 13.6727 15 12.292C15 10.9113 13.8807 9.79199 12.5 9.79199C11.1193 9.79199 10 10.9113 10 12.292C10 13.6727 11.1193 14.7919 12.5 14.7919Z" fill="white"/>
<path d="M12.5 24.292C13.8807 24.292 15 23.1727 15 21.792C15 20.4113 13.8807 19.292 12.5 19.292C11.1193 19.292 10 20.4113 10 21.792C10 23.1727 11.1193 24.292 12.5 24.292Z" fill="white"/>
</g>
<defs>
<clipPath id="clip0_10662_3286">
<rect width="24" height="24" fill="white" transform="translate(0.5 0.291992)"/>
</clipPath>
</defs>
</svg>
