<svg width="604" height="160" viewBox="0 0 604 160" fill="none" xmlns="http://www.w3.org/2000/svg">
<path d="M291.184 50.195C292.55 49.7119 293.537 49.2862 293.637 49.2431L292.486 46.5757C292.418 46.5998 286.253 49.2483 282.542 49.0771C279.58 48.9175 274.178 42.6808 270.637 36.7084C268.401 32.9262 268.386 31.4941 268.606 30.963C268.643 30.8501 268.752 30.5502 269.483 30.2917L272.004 29.4005C273.503 31.3374 275.451 33.131 277.207 32.5102L282.249 30.7277L281.283 27.9951L276.405 29.7197C275.336 28.9277 274.415 27.9518 273.688 26.8377L273.052 25.9324L268.468 27.5531C267.876 27.7263 267.331 28.0325 266.874 28.4482C266.418 28.8639 266.063 29.3782 265.835 29.9521C265.163 31.8114 265.853 34.3496 268.133 38.17C269.957 41.2511 272.077 44.1464 274.464 46.8146C277.496 50.1309 280.177 51.8654 282.431 51.9598C285.195 52.1046 288.806 51.0355 291.184 50.195Z" fill="#E6E6E6"/>
<path opacity="0.2" d="M277.25 29.3984L281.287 27.971L282.261 30.7241L278.845 31.9318L277.25 29.3984Z" fill="black"/>
<path opacity="0.2" d="M293.646 49.2497C293.537 49.2883 292.587 49.7089 291.193 50.2016C290.961 50.2837 290.722 50.3682 290.469 50.4576L288.888 47.9424C290.911 47.2962 292.474 46.6285 292.505 46.6096L293.646 49.2497Z" fill="black"/>
<path d="M317.596 40.8561C316.229 41.3392 315.194 41.6284 315.089 41.6578L314.308 38.8599C314.376 38.8358 320.836 37.0207 323.614 34.555C325.827 32.5968 326.109 24.3276 325.102 17.4591C324.464 13.1117 323.575 11.9888 323.071 11.7138C322.971 11.6491 322.698 11.4845 321.967 11.7429L319.446 12.6341C319.497 15.0831 319.109 17.7027 317.353 18.3234L312.311 20.106L311.345 17.3733L316.223 15.6488C316.557 14.3606 316.659 13.0232 316.525 11.6992L316.45 10.596L321.034 8.97528C321.603 8.73695 322.219 8.63144 322.835 8.66677C323.45 8.70209 324.05 8.87732 324.588 9.17914C326.279 10.2028 327.338 12.6106 327.966 17.0154C328.484 20.5577 328.655 24.1423 328.475 27.7178C328.201 32.2032 327.207 35.2371 325.512 36.7276C323.453 38.5776 319.973 40.0156 317.596 40.8561Z" fill="#E6E6E6"/>
<path opacity="0.2" d="M315.358 15.9241L311.32 17.3516L312.294 20.1047L315.709 18.897L315.358 15.9241Z" fill="black"/>
<path opacity="0.2" d="M315.089 41.6662C315.199 41.6276 316.202 41.3574 317.596 40.8646C317.828 40.7825 318.067 40.698 318.32 40.6086L317.969 37.6586C315.989 38.4278 314.354 38.8905 314.317 38.8957L315.089 41.6662Z" fill="black"/>
<path d="M299.74 78.0863L300.288 79.6371L329.021 69.4783L328.473 67.9275L326.014 68.7971L323.246 66.8166L313.708 66.446L307.938 50.1254L304.522 51.333L310.292 67.6536L303.107 73.937L302.199 77.2168L299.74 78.0863Z" fill="#E6E6E6"/>
<path d="M304.336 53.8533L309.645 51.9766L309.038 50.2618L303.73 52.1385L304.336 53.8533Z" fill="#E6E6E6"/>
<path opacity="0.2" d="M304.126 53.2191L309.345 51.1125L309.043 50.2585L303.742 52.1328L304.126 53.2191Z" fill="black"/>
<path d="M276.531 22.6445C276.531 22.6445 285.757 44.3914 291.415 49.308C297.073 54.2246 304.751 52.0942 306.493 51.4783C308.235 50.8624 315.529 47.6916 316.856 40.3134C318.182 32.9352 311.673 10.2202 311.673 10.2202L276.531 22.6445Z" fill="#E6E6E6"/>
<path opacity="0.3" d="M303.732 52.1699C300.534 52.7319 295.459 52.7894 291.408 49.3104C285.73 44.4011 276.531 22.6445 276.531 22.6445L279.831 21.4779C281.938 25.9821 289.153 43.4981 293.5 47.7944C297.297 51.5552 303.331 52.1657 303.732 52.1699Z" fill="white"/>
<path opacity="0.2" d="M326.009 68.8056L302.194 77.2254L302.514 76.044L324.138 67.469L326.009 68.8056Z" fill="black"/>
<path opacity="0.1" d="M296.583 23.4555L299.821 26.6145L304.267 25.7343L302.26 29.7949L304.469 33.7403L299.991 33.0948L296.914 36.4117L296.152 31.9542L292.039 30.0577L296.05 27.9478L296.583 23.4555Z" fill="black"/>
<path d="M339.83 70.3585L292.418 87.1211L298.722 104.953L346.135 88.1905L339.83 70.3585Z" fill="#B3B3B3"/>
<path d="M335.517 67.1833L293.797 81.9336L295.258 86.0667L336.979 71.3164L335.517 67.1833Z" fill="#848484"/>
<path d="M238.885 124V113.818H240.421V122.678H245.035V124H238.885ZM249.959 124.154C249.207 124.154 248.559 123.993 248.016 123.672C247.475 123.347 247.058 122.891 246.763 122.305C246.471 121.715 246.325 121.024 246.325 120.232C246.325 119.449 246.471 118.76 246.763 118.163C247.058 117.567 247.469 117.101 247.996 116.766C248.526 116.432 249.146 116.264 249.855 116.264C250.286 116.264 250.704 116.335 251.108 116.478C251.512 116.621 251.875 116.844 252.197 117.149C252.518 117.454 252.772 117.85 252.957 118.337C253.143 118.821 253.236 119.41 253.236 120.102V120.629H247.165V119.516H251.779C251.779 119.125 251.699 118.778 251.54 118.477C251.381 118.172 251.158 117.931 250.869 117.756C250.584 117.58 250.249 117.492 249.865 117.492C249.447 117.492 249.083 117.595 248.771 117.8C248.463 118.003 248.224 118.268 248.055 118.596C247.89 118.921 247.807 119.274 247.807 119.655V120.525C247.807 121.035 247.896 121.469 248.075 121.827C248.257 122.185 248.511 122.459 248.836 122.648C249.161 122.833 249.54 122.926 249.974 122.926C250.256 122.926 250.513 122.886 250.745 122.807C250.977 122.724 251.177 122.601 251.347 122.439C251.516 122.277 251.645 122.076 251.734 121.837L253.141 122.091C253.029 122.505 252.826 122.868 252.535 123.18C252.246 123.488 251.883 123.728 251.446 123.901C251.012 124.07 250.516 124.154 249.959 124.154ZM257.107 124.169C256.623 124.169 256.186 124.08 255.795 123.901C255.404 123.718 255.094 123.455 254.865 123.11C254.64 122.765 254.527 122.343 254.527 121.842C254.527 121.411 254.61 121.057 254.776 120.778C254.941 120.5 255.165 120.28 255.447 120.117C255.729 119.955 256.043 119.832 256.391 119.749C256.739 119.666 257.094 119.603 257.455 119.56C257.913 119.507 258.284 119.464 258.569 119.431C258.854 119.395 259.061 119.337 259.19 119.257C259.32 119.178 259.384 119.048 259.384 118.869V118.835C259.384 118.4 259.262 118.064 259.016 117.825C258.774 117.587 258.413 117.467 257.933 117.467C257.432 117.467 257.038 117.578 256.749 117.8C256.464 118.019 256.267 118.263 256.158 118.531L254.761 118.213C254.926 117.749 255.168 117.375 255.487 117.089C255.808 116.801 256.178 116.592 256.595 116.463C257.013 116.33 257.452 116.264 257.913 116.264C258.218 116.264 258.541 116.301 258.882 116.374C259.227 116.443 259.548 116.572 259.847 116.761C260.148 116.95 260.395 117.22 260.587 117.572C260.78 117.92 260.876 118.372 260.876 118.929V124H259.424V122.956H259.364C259.268 123.148 259.124 123.337 258.932 123.523C258.74 123.708 258.493 123.862 258.191 123.985C257.89 124.108 257.528 124.169 257.107 124.169ZM257.43 122.976C257.841 122.976 258.193 122.895 258.484 122.732C258.779 122.57 259.003 122.358 259.156 122.096C259.311 121.831 259.389 121.547 259.389 121.246V120.261C259.336 120.314 259.234 120.364 259.081 120.411C258.932 120.454 258.761 120.492 258.569 120.525C258.377 120.555 258.189 120.583 258.007 120.609C257.825 120.633 257.672 120.652 257.55 120.669C257.261 120.705 256.998 120.767 256.759 120.853C256.524 120.939 256.335 121.063 256.193 121.226C256.053 121.385 255.984 121.597 255.984 121.862C255.984 122.23 256.12 122.509 256.391 122.697C256.663 122.883 257.01 122.976 257.43 122.976ZM265.714 124.149C265.098 124.149 264.548 123.992 264.064 123.677C263.583 123.359 263.205 122.906 262.93 122.32C262.659 121.73 262.523 121.022 262.523 120.197C262.523 119.371 262.66 118.665 262.935 118.079C263.214 117.492 263.595 117.043 264.079 116.732C264.563 116.42 265.111 116.264 265.724 116.264C266.198 116.264 266.579 116.344 266.868 116.503C267.159 116.659 267.385 116.841 267.544 117.05C267.706 117.259 267.832 117.442 267.922 117.602H268.011V113.818H269.498V124H268.046V122.812H267.922C267.832 122.974 267.703 123.16 267.534 123.369C267.368 123.577 267.14 123.76 266.848 123.915C266.556 124.071 266.178 124.149 265.714 124.149ZM266.043 122.881C266.47 122.881 266.831 122.769 267.126 122.543C267.425 122.315 267.65 121.998 267.802 121.594C267.958 121.189 268.036 120.719 268.036 120.182C268.036 119.652 267.96 119.187 267.807 118.79C267.655 118.392 267.431 118.082 267.136 117.86C266.841 117.638 266.477 117.527 266.043 117.527C265.595 117.527 265.222 117.643 264.924 117.875C264.626 118.107 264.4 118.424 264.248 118.825C264.099 119.226 264.024 119.678 264.024 120.182C264.024 120.692 264.1 121.151 264.253 121.559C264.405 121.967 264.631 122.29 264.929 122.528C265.23 122.764 265.602 122.881 266.043 122.881ZM274.911 124.154C274.158 124.154 273.51 123.993 272.967 123.672C272.426 123.347 272.009 122.891 271.714 122.305C271.422 121.715 271.276 121.024 271.276 120.232C271.276 119.449 271.422 118.76 271.714 118.163C272.009 117.567 272.42 117.101 272.947 116.766C273.477 116.432 274.097 116.264 274.806 116.264C275.237 116.264 275.655 116.335 276.059 116.478C276.463 116.621 276.826 116.844 277.148 117.149C277.469 117.454 277.723 117.85 277.908 118.337C278.094 118.821 278.187 119.41 278.187 120.102V120.629H272.117V119.516H276.73C276.73 119.125 276.651 118.778 276.492 118.477C276.332 118.172 276.109 117.931 275.82 117.756C275.535 117.58 275.201 117.492 274.816 117.492C274.399 117.492 274.034 117.595 273.722 117.8C273.414 118.003 273.176 118.268 273.006 118.596C272.841 118.921 272.758 119.274 272.758 119.655V120.525C272.758 121.035 272.847 121.469 273.026 121.827C273.209 122.185 273.462 122.459 273.787 122.648C274.112 122.833 274.491 122.926 274.926 122.926C275.207 122.926 275.464 122.886 275.696 122.807C275.928 122.724 276.129 122.601 276.298 122.439C276.467 122.277 276.596 122.076 276.685 121.837L278.092 122.091C277.98 122.505 277.778 122.868 277.486 123.18C277.198 123.488 276.835 123.728 276.397 123.901C275.963 124.07 275.467 124.154 274.911 124.154ZM279.836 124V116.364H281.273V117.577H281.353C281.492 117.166 281.737 116.843 282.088 116.607C282.443 116.369 282.844 116.249 283.291 116.249C283.384 116.249 283.494 116.253 283.62 116.259C283.749 116.266 283.85 116.274 283.923 116.284V117.706C283.863 117.689 283.757 117.671 283.605 117.651C283.452 117.628 283.3 117.616 283.147 117.616C282.796 117.616 282.483 117.691 282.208 117.84C281.936 117.986 281.72 118.19 281.561 118.452C281.402 118.71 281.323 119.005 281.323 119.337V124H279.836ZM285.329 124V113.818H286.815V117.602H286.905C286.991 117.442 287.115 117.259 287.277 117.05C287.44 116.841 287.665 116.659 287.954 116.503C288.242 116.344 288.623 116.264 289.097 116.264C289.714 116.264 290.264 116.42 290.748 116.732C291.232 117.043 291.611 117.492 291.886 118.079C292.165 118.665 292.304 119.371 292.304 120.197C292.304 121.022 292.166 121.73 291.891 122.32C291.616 122.906 291.238 123.359 290.758 123.677C290.277 123.992 289.728 124.149 289.112 124.149C288.648 124.149 288.268 124.071 287.973 123.915C287.682 123.76 287.453 123.577 287.287 123.369C287.122 123.16 286.994 122.974 286.905 122.812H286.78V124H285.329ZM286.785 120.182C286.785 120.719 286.863 121.189 287.019 121.594C287.175 121.998 287.4 122.315 287.695 122.543C287.99 122.769 288.351 122.881 288.779 122.881C289.223 122.881 289.594 122.764 289.892 122.528C290.191 122.29 290.416 121.967 290.569 121.559C290.724 121.151 290.802 120.692 290.802 120.182C290.802 119.678 290.726 119.226 290.574 118.825C290.424 118.424 290.199 118.107 289.897 117.875C289.599 117.643 289.226 117.527 288.779 117.527C288.348 117.527 287.983 117.638 287.685 117.86C287.39 118.082 287.166 118.392 287.014 118.79C286.861 119.187 286.785 119.652 286.785 120.182ZM297.19 124.154C296.474 124.154 295.849 123.99 295.315 123.662C294.782 123.334 294.367 122.875 294.072 122.285C293.777 121.695 293.63 121.005 293.63 120.217C293.63 119.424 293.777 118.732 294.072 118.138C294.367 117.545 294.782 117.085 295.315 116.756C295.849 116.428 296.474 116.264 297.19 116.264C297.905 116.264 298.53 116.428 299.064 116.756C299.597 117.085 300.012 117.545 300.307 118.138C300.602 118.732 300.749 119.424 300.749 120.217C300.749 121.005 300.602 121.695 300.307 122.285C300.012 122.875 299.597 123.334 299.064 123.662C298.53 123.99 297.905 124.154 297.19 124.154ZM297.195 122.906C297.659 122.906 298.043 122.784 298.348 122.538C298.653 122.293 298.878 121.967 299.024 121.559C299.173 121.151 299.248 120.702 299.248 120.212C299.248 119.724 299.173 119.277 299.024 118.869C298.878 118.458 298.653 118.129 298.348 117.88C298.043 117.631 297.659 117.507 297.195 117.507C296.727 117.507 296.339 117.631 296.031 117.88C295.726 118.129 295.499 118.458 295.35 118.869C295.204 119.277 295.131 119.724 295.131 120.212C295.131 120.702 295.204 121.151 295.35 121.559C295.499 121.967 295.726 122.293 296.031 122.538C296.339 122.784 296.727 122.906 297.195 122.906ZM304.631 124.169C304.147 124.169 303.709 124.08 303.318 123.901C302.927 123.718 302.617 123.455 302.389 123.11C302.163 122.765 302.051 122.343 302.051 121.842C302.051 121.411 302.133 121.057 302.299 120.778C302.465 120.5 302.689 120.28 302.97 120.117C303.252 119.955 303.567 119.832 303.915 119.749C304.263 119.666 304.618 119.603 304.979 119.56C305.436 119.507 305.807 119.464 306.092 119.431C306.377 119.395 306.585 119.337 306.714 119.257C306.843 119.178 306.908 119.048 306.908 118.869V118.835C306.908 118.4 306.785 118.064 306.54 117.825C306.298 117.587 305.937 117.467 305.456 117.467C304.956 117.467 304.561 117.578 304.273 117.8C303.988 118.019 303.791 118.263 303.681 118.531L302.284 118.213C302.45 117.749 302.692 117.375 303.01 117.089C303.332 116.801 303.701 116.592 304.119 116.463C304.536 116.33 304.975 116.264 305.436 116.264C305.741 116.264 306.064 116.301 306.406 116.374C306.75 116.443 307.072 116.572 307.37 116.761C307.672 116.95 307.919 117.22 308.111 117.572C308.303 117.92 308.399 118.372 308.399 118.929V124H306.948V122.956H306.888C306.792 123.148 306.648 123.337 306.455 123.523C306.263 123.708 306.016 123.862 305.715 123.985C305.413 124.108 305.052 124.169 304.631 124.169ZM304.954 122.976C305.365 122.976 305.716 122.895 306.008 122.732C306.303 122.57 306.527 122.358 306.679 122.096C306.835 121.831 306.913 121.547 306.913 121.246V120.261C306.86 120.314 306.757 120.364 306.604 120.411C306.455 120.454 306.285 120.492 306.092 120.525C305.9 120.555 305.713 120.583 305.531 120.609C305.348 120.633 305.196 120.652 305.073 120.669C304.785 120.705 304.521 120.767 304.283 120.853C304.047 120.939 303.859 121.063 303.716 121.226C303.577 121.385 303.507 121.597 303.507 121.862C303.507 122.23 303.643 122.509 303.915 122.697C304.187 122.883 304.533 122.976 304.954 122.976ZM310.379 124V116.364H311.816V117.577H311.896C312.035 117.166 312.28 116.843 312.631 116.607C312.986 116.369 313.387 116.249 313.834 116.249C313.927 116.249 314.037 116.253 314.163 116.259C314.292 116.266 314.393 116.274 314.466 116.284V117.706C314.406 117.689 314.3 117.671 314.148 117.651C313.995 117.628 313.843 117.616 313.69 117.616C313.339 117.616 313.026 117.691 312.751 117.84C312.479 117.986 312.263 118.19 312.104 118.452C311.945 118.71 311.866 119.005 311.866 119.337V124H310.379ZM318.337 124.149C317.721 124.149 317.171 123.992 316.687 123.677C316.206 123.359 315.828 122.906 315.553 122.32C315.282 121.73 315.146 121.022 315.146 120.197C315.146 119.371 315.283 118.665 315.558 118.079C315.837 117.492 316.218 117.043 316.702 116.732C317.186 116.42 317.734 116.264 318.347 116.264C318.821 116.264 319.203 116.344 319.491 116.503C319.783 116.659 320.008 116.841 320.167 117.05C320.329 117.259 320.455 117.442 320.545 117.602H320.634V113.818H322.121V124H320.669V122.812H320.545C320.455 122.974 320.326 123.16 320.157 123.369C319.991 123.577 319.763 123.76 319.471 123.915C319.179 124.071 318.801 124.149 318.337 124.149ZM318.666 122.881C319.093 122.881 319.454 122.769 319.749 122.543C320.048 122.315 320.273 121.998 320.426 121.594C320.581 121.189 320.659 120.719 320.659 120.182C320.659 119.652 320.583 119.187 320.43 118.79C320.278 118.392 320.054 118.082 319.759 117.86C319.464 117.638 319.1 117.527 318.666 117.527C318.218 117.527 317.845 117.643 317.547 117.875C317.249 118.107 317.023 118.424 316.871 118.825C316.722 119.226 316.647 119.678 316.647 120.182C316.647 120.692 316.723 121.151 316.876 121.559C317.028 121.967 317.254 122.29 317.552 122.528C317.854 122.764 318.225 122.881 318.666 122.881ZM327.948 124V116.364H329.434V124H327.948ZM328.698 115.185C328.44 115.185 328.218 115.099 328.032 114.927C327.85 114.751 327.759 114.542 327.759 114.3C327.759 114.055 327.85 113.846 328.032 113.674C328.218 113.498 328.44 113.411 328.698 113.411C328.957 113.411 329.177 113.498 329.359 113.674C329.545 113.846 329.638 114.055 329.638 114.3C329.638 114.542 329.545 114.751 329.359 114.927C329.177 115.099 328.957 115.185 328.698 115.185ZM337.156 118.228L335.809 118.467C335.753 118.294 335.663 118.13 335.54 117.974C335.421 117.819 335.259 117.691 335.053 117.592C334.848 117.492 334.591 117.442 334.283 117.442C333.862 117.442 333.51 117.537 333.229 117.726C332.947 117.911 332.806 118.152 332.806 118.447C332.806 118.702 332.9 118.907 333.089 119.063C333.278 119.219 333.583 119.347 334.004 119.446L335.217 119.724C335.92 119.887 336.444 120.137 336.788 120.475C337.133 120.813 337.305 121.252 337.305 121.793C337.305 122.25 337.173 122.658 336.908 123.016C336.646 123.37 336.28 123.649 335.809 123.851C335.342 124.053 334.8 124.154 334.183 124.154C333.328 124.154 332.63 123.972 332.09 123.607C331.55 123.239 331.218 122.717 331.096 122.041L332.533 121.822C332.622 122.197 332.806 122.48 333.084 122.673C333.363 122.862 333.726 122.956 334.173 122.956C334.66 122.956 335.05 122.855 335.342 122.653C335.633 122.447 335.779 122.197 335.779 121.902C335.779 121.663 335.69 121.463 335.511 121.3C335.335 121.138 335.065 121.015 334.7 120.933L333.408 120.649C332.695 120.487 332.168 120.228 331.827 119.874C331.489 119.519 331.32 119.07 331.32 118.526C331.32 118.076 331.445 117.681 331.697 117.343C331.949 117.005 332.297 116.741 332.741 116.553C333.186 116.36 333.694 116.264 334.268 116.264C335.093 116.264 335.743 116.443 336.217 116.801C336.69 117.156 337.004 117.631 337.156 118.228ZM342.764 124V113.818H349.148V115.141H344.3V118.243H348.815V119.56H344.3V122.678H349.207V124H342.764ZM351.08 124V116.364H352.507V117.607H352.602C352.761 117.186 353.021 116.857 353.382 116.622C353.743 116.384 354.176 116.264 354.68 116.264C355.19 116.264 355.618 116.384 355.962 116.622C356.31 116.861 356.567 117.189 356.733 117.607H356.813C356.995 117.199 357.285 116.874 357.683 116.632C358.08 116.387 358.554 116.264 359.104 116.264C359.797 116.264 360.362 116.481 360.8 116.915C361.241 117.35 361.461 118.004 361.461 118.879V124H359.975V119.018C359.975 118.501 359.834 118.127 359.552 117.895C359.27 117.663 358.934 117.547 358.543 117.547C358.059 117.547 357.683 117.696 357.414 117.994C357.146 118.289 357.011 118.669 357.011 119.133V124H355.53V118.924C355.53 118.51 355.401 118.177 355.142 117.925C354.884 117.673 354.547 117.547 354.133 117.547C353.851 117.547 353.591 117.621 353.352 117.771C353.117 117.916 352.926 118.12 352.781 118.382C352.638 118.644 352.567 118.947 352.567 119.292V124H351.08ZM363.453 126.864V116.364H364.905V117.602H365.029C365.116 117.442 365.24 117.259 365.402 117.05C365.565 116.841 365.79 116.659 366.078 116.503C366.367 116.344 366.748 116.264 367.222 116.264C367.838 116.264 368.389 116.42 368.872 116.732C369.356 117.043 369.736 117.492 370.011 118.079C370.289 118.665 370.429 119.371 370.429 120.197C370.429 121.022 370.291 121.73 370.016 122.32C369.741 122.906 369.363 123.359 368.882 123.677C368.402 123.992 367.853 124.149 367.237 124.149C366.773 124.149 366.393 124.071 366.098 123.915C365.807 123.76 365.578 123.577 365.412 123.369C365.246 123.16 365.119 122.974 365.029 122.812H364.94V126.864H363.453ZM364.91 120.182C364.91 120.719 364.988 121.189 365.144 121.594C365.3 121.998 365.525 122.315 365.82 122.543C366.115 122.769 366.476 122.881 366.904 122.881C367.348 122.881 367.719 122.764 368.017 122.528C368.316 122.29 368.541 121.967 368.693 121.559C368.849 121.151 368.927 120.692 368.927 120.182C368.927 119.678 368.851 119.226 368.698 118.825C368.549 118.424 368.324 118.107 368.022 117.875C367.724 117.643 367.351 117.527 366.904 117.527C366.473 117.527 366.108 117.638 365.81 117.86C365.515 118.082 365.291 118.392 365.139 118.79C364.986 119.187 364.91 119.652 364.91 120.182ZM375.659 116.364V117.557H371.487V116.364H375.659ZM372.606 114.534H374.093V121.758C374.093 122.046 374.136 122.263 374.222 122.409C374.308 122.552 374.419 122.649 374.555 122.702C374.694 122.752 374.845 122.777 375.007 122.777C375.127 122.777 375.231 122.769 375.321 122.752C375.41 122.736 375.48 122.722 375.529 122.712L375.798 123.94C375.712 123.973 375.589 124.007 375.43 124.04C375.271 124.076 375.072 124.096 374.833 124.099C374.442 124.106 374.078 124.036 373.74 123.891C373.402 123.745 373.128 123.519 372.919 123.214C372.71 122.91 372.606 122.527 372.606 122.066V114.534ZM378.243 126.864C378.021 126.864 377.818 126.845 377.636 126.809C377.454 126.776 377.318 126.739 377.228 126.7L377.586 125.482C377.858 125.554 378.1 125.586 378.312 125.576C378.524 125.566 378.712 125.487 378.874 125.337C379.04 125.188 379.186 124.945 379.312 124.607L379.495 124.099L376.701 116.364H378.292L380.226 122.29H380.306L382.24 116.364H383.836L380.689 125.019C380.543 125.417 380.357 125.753 380.132 126.028C379.906 126.307 379.638 126.516 379.326 126.655C379.015 126.794 378.654 126.864 378.243 126.864Z" fill="black"/>
<path d="M165.68 135.818V146H164.776L158.76 137.474H158.68V146H157.751V135.818H158.651L164.686 144.354H164.766V135.818H165.68ZM171.172 146.159C170.512 146.159 169.929 145.992 169.422 145.657C168.918 145.322 168.523 144.86 168.238 144.27C167.953 143.677 167.811 142.992 167.811 142.217C167.811 141.434 167.953 140.747 168.238 140.153C168.523 139.557 168.918 139.093 169.422 138.761C169.929 138.427 170.512 138.259 171.172 138.259C171.831 138.259 172.413 138.427 172.917 138.761C173.42 139.096 173.815 139.56 174.1 140.153C174.388 140.747 174.532 141.434 174.532 142.217C174.532 142.992 174.39 143.677 174.105 144.27C173.82 144.86 173.424 145.322 172.917 145.657C172.413 145.992 171.831 146.159 171.172 146.159ZM171.172 145.349C171.702 145.349 172.151 145.206 172.519 144.921C172.887 144.636 173.165 144.257 173.354 143.783C173.546 143.309 173.642 142.787 173.642 142.217C173.642 141.647 173.546 141.123 173.354 140.646C173.165 140.168 172.887 139.786 172.519 139.497C172.151 139.209 171.702 139.065 171.172 139.065C170.645 139.065 170.195 139.209 169.824 139.497C169.456 139.786 169.176 140.168 168.984 140.646C168.795 141.123 168.701 141.647 168.701 142.217C168.701 142.787 168.795 143.309 168.984 143.783C169.176 144.257 169.456 144.636 169.824 144.921C170.192 145.206 170.641 145.349 171.172 145.349ZM180.412 146V138.364H181.273V139.537H181.337C181.49 139.152 181.755 138.843 182.133 138.607C182.514 138.369 182.945 138.249 183.425 138.249C183.498 138.249 183.579 138.251 183.669 138.254C183.758 138.258 183.833 138.261 183.893 138.264V139.164C183.853 139.157 183.783 139.147 183.684 139.134C183.584 139.121 183.477 139.114 183.361 139.114C182.963 139.114 182.608 139.199 182.297 139.368C181.988 139.534 181.745 139.764 181.566 140.059C181.387 140.354 181.297 140.69 181.297 141.068V146H180.412ZM187.536 146.174C187.075 146.174 186.654 146.085 186.273 145.906C185.892 145.723 185.588 145.461 185.363 145.12C185.138 144.775 185.025 144.358 185.025 143.867C185.025 143.489 185.096 143.171 185.239 142.913C185.381 142.654 185.583 142.442 185.845 142.276C186.107 142.111 186.417 141.98 186.775 141.884C187.133 141.787 187.527 141.713 187.958 141.66C188.386 141.607 188.747 141.56 189.042 141.521C189.34 141.481 189.567 141.418 189.723 141.332C189.879 141.246 189.957 141.106 189.957 140.914V140.735C189.957 140.215 189.801 139.805 189.489 139.507C189.181 139.205 188.737 139.055 188.157 139.055C187.607 139.055 187.158 139.176 186.81 139.418C186.465 139.66 186.223 139.945 186.084 140.273L185.244 139.969C185.416 139.552 185.655 139.219 185.96 138.97C186.264 138.718 186.606 138.538 186.984 138.428C187.362 138.316 187.744 138.259 188.132 138.259C188.424 138.259 188.727 138.297 189.042 138.374C189.36 138.45 189.655 138.582 189.927 138.771C190.199 138.957 190.419 139.217 190.588 139.552C190.757 139.883 190.842 140.304 190.842 140.815V146H189.957V144.792H189.902C189.796 145.017 189.638 145.236 189.43 145.448C189.221 145.66 188.959 145.834 188.644 145.97C188.329 146.106 187.96 146.174 187.536 146.174ZM187.655 145.364C188.125 145.364 188.533 145.259 188.878 145.05C189.223 144.842 189.488 144.565 189.673 144.22C189.862 143.872 189.957 143.489 189.957 143.072V141.968C189.89 142.031 189.779 142.087 189.624 142.137C189.471 142.187 189.294 142.232 189.092 142.271C188.893 142.308 188.694 142.339 188.495 142.366C188.296 142.392 188.117 142.415 187.958 142.435C187.527 142.488 187.159 142.571 186.854 142.684C186.549 142.797 186.316 142.952 186.153 143.151C185.991 143.347 185.91 143.599 185.91 143.907C185.91 144.371 186.076 144.731 186.407 144.986C186.738 145.238 187.154 145.364 187.655 145.364ZM194.081 141.227V146H193.196V138.364H194.056V139.562H194.135C194.314 139.171 194.593 138.857 194.971 138.622C195.352 138.384 195.822 138.264 196.382 138.264C196.896 138.264 197.347 138.372 197.735 138.587C198.126 138.799 198.429 139.113 198.645 139.527C198.863 139.941 198.973 140.45 198.973 141.053V146H198.088V141.108C198.088 140.482 197.912 139.986 197.561 139.621C197.213 139.257 196.745 139.075 196.159 139.075C195.758 139.075 195.401 139.161 195.09 139.333C194.778 139.505 194.531 139.754 194.349 140.079C194.17 140.4 194.081 140.783 194.081 141.227ZM202.108 143.116L202.099 141.958H202.297L205.877 138.364H206.996L203.461 141.903L203.381 141.918L202.108 143.116ZM201.303 146V135.818H202.188V146H201.303ZM206.061 146L202.959 142.077L203.595 141.466L207.194 146H206.061ZM208.669 146V138.364H209.558V146H208.669ZM209.121 137.051C208.939 137.051 208.783 136.99 208.654 136.867C208.524 136.741 208.46 136.59 208.46 136.415C208.46 136.239 208.524 136.09 208.654 135.967C208.783 135.841 208.939 135.778 209.121 135.778C209.303 135.778 209.459 135.841 209.588 135.967C209.718 136.09 209.782 136.239 209.782 136.415C209.782 136.59 209.718 136.741 209.588 136.867C209.459 136.99 209.303 137.051 209.121 137.051ZM212.784 141.227V146H211.899V138.364H212.759V139.562H212.838C213.017 139.171 213.296 138.857 213.674 138.622C214.055 138.384 214.525 138.264 215.086 138.264C215.599 138.264 216.05 138.372 216.438 138.587C216.829 138.799 217.132 139.113 217.348 139.527C217.566 139.941 217.676 140.45 217.676 141.053V146H216.791V141.108C216.791 140.482 216.615 139.986 216.264 139.621C215.916 139.257 215.449 139.075 214.862 139.075C214.461 139.075 214.105 139.161 213.793 139.333C213.481 139.505 213.234 139.754 213.052 140.079C212.873 140.4 212.784 140.783 212.784 141.227ZM222.92 149.023C222.399 149.023 221.943 148.955 221.552 148.819C221.161 148.686 220.831 148.504 220.563 148.272C220.295 148.04 220.086 147.78 219.937 147.491L220.662 147.014C220.772 147.206 220.918 147.395 221.1 147.581C221.286 147.767 221.526 147.921 221.821 148.043C222.119 148.166 222.485 148.227 222.92 148.227C223.596 148.227 224.141 148.058 224.555 147.72C224.973 147.382 225.182 146.857 225.182 146.144V144.424H225.102C224.999 144.656 224.852 144.888 224.66 145.12C224.467 145.349 224.215 145.539 223.904 145.692C223.596 145.844 223.213 145.92 222.756 145.92C222.146 145.92 221.604 145.77 221.13 145.468C220.659 145.166 220.288 144.736 220.016 144.175C219.748 143.612 219.613 142.941 219.613 142.162C219.613 141.39 219.744 140.71 220.006 140.124C220.271 139.537 220.641 139.08 221.115 138.751C221.589 138.423 222.141 138.259 222.77 138.259C223.238 138.259 223.626 138.342 223.934 138.508C224.242 138.67 224.489 138.872 224.675 139.114C224.863 139.356 225.011 139.592 225.117 139.82H225.206V138.364H226.072V146.199C226.072 146.845 225.934 147.377 225.659 147.795C225.384 148.212 225.009 148.521 224.535 148.719C224.061 148.922 223.523 149.023 222.92 149.023ZM222.86 145.11C223.35 145.11 223.77 144.992 224.118 144.757C224.466 144.518 224.733 144.177 224.918 143.733C225.104 143.289 225.197 142.76 225.197 142.147C225.197 141.55 225.105 141.022 224.923 140.561C224.741 140.097 224.476 139.732 224.128 139.467C223.783 139.199 223.36 139.065 222.86 139.065C222.349 139.065 221.919 139.202 221.567 139.477C221.216 139.752 220.951 140.124 220.772 140.591C220.593 141.055 220.503 141.574 220.503 142.147C220.503 142.73 220.595 143.246 220.777 143.693C220.959 144.137 221.226 144.485 221.577 144.737C221.929 144.986 222.356 145.11 222.86 145.11ZM233.545 140.039L232.735 140.268C232.655 140.039 232.542 139.832 232.397 139.646C232.251 139.461 232.06 139.313 231.825 139.204C231.593 139.094 231.305 139.04 230.96 139.04C230.443 139.04 230.019 139.162 229.687 139.408C229.356 139.653 229.19 139.969 229.19 140.357C229.19 140.685 229.303 140.952 229.528 141.158C229.757 141.36 230.108 141.521 230.582 141.64L231.735 141.923C232.375 142.079 232.854 142.326 233.172 142.664C233.494 143.002 233.654 143.426 233.654 143.937C233.654 144.368 233.535 144.75 233.297 145.085C233.058 145.42 232.725 145.683 232.297 145.876C231.873 146.065 231.381 146.159 230.821 146.159C230.075 146.159 229.46 145.992 228.976 145.657C228.492 145.319 228.182 144.832 228.047 144.195L228.897 143.987C229.006 144.441 229.22 144.784 229.538 145.016C229.859 145.248 230.282 145.364 230.806 145.364C231.392 145.364 231.861 145.233 232.213 144.971C232.564 144.706 232.74 144.374 232.74 143.977C232.74 143.668 232.637 143.41 232.431 143.201C232.226 142.989 231.914 142.833 231.497 142.734L230.249 142.435C229.586 142.276 229.096 142.024 228.777 141.68C228.459 141.335 228.3 140.907 228.3 140.397C228.3 139.976 228.414 139.607 228.643 139.288C228.872 138.967 229.187 138.715 229.588 138.533C229.989 138.35 230.446 138.259 230.96 138.259C231.659 138.259 232.218 138.418 232.635 138.737C233.056 139.051 233.359 139.486 233.545 140.039ZM240.146 148.864C239.97 148.864 239.806 148.847 239.654 148.814C239.501 148.781 239.381 148.744 239.291 148.705L239.53 147.924C239.831 148.017 240.1 148.05 240.335 148.023C240.57 148 240.779 147.894 240.961 147.705C241.144 147.52 241.306 147.235 241.449 146.85L241.727 146.075L238.918 138.364H239.878L242.145 144.832H242.214L244.481 138.364H245.441L242.209 147.208C242.073 147.576 241.906 147.883 241.707 148.128C241.508 148.376 241.278 148.56 241.016 148.68C240.758 148.802 240.468 148.864 240.146 148.864ZM249.986 146.159C249.274 146.159 248.657 145.993 248.137 145.662C247.616 145.327 247.214 144.865 246.929 144.275C246.647 143.682 246.506 142.999 246.506 142.227C246.506 141.458 246.647 140.775 246.929 140.178C247.214 139.578 247.606 139.109 248.107 138.771C248.611 138.43 249.192 138.259 249.852 138.259C250.266 138.259 250.666 138.335 251.05 138.488C251.435 138.637 251.779 138.867 252.084 139.179C252.392 139.487 252.636 139.877 252.815 140.347C252.994 140.815 253.083 141.368 253.083 142.008V142.445H247.118V141.665H252.179C252.179 141.174 252.079 140.733 251.88 140.342C251.685 139.948 251.411 139.636 251.06 139.408C250.712 139.179 250.309 139.065 249.852 139.065C249.368 139.065 248.942 139.194 248.574 139.452C248.206 139.711 247.918 140.052 247.709 140.477C247.504 140.901 247.399 141.365 247.396 141.869V142.336C247.396 142.942 247.5 143.473 247.709 143.927C247.921 144.378 248.221 144.727 248.609 144.976C248.997 145.224 249.456 145.349 249.986 145.349C250.347 145.349 250.664 145.292 250.936 145.18C251.211 145.067 251.441 144.916 251.627 144.727C251.816 144.535 251.958 144.325 252.054 144.096L252.895 144.369C252.779 144.691 252.588 144.987 252.323 145.259C252.061 145.531 251.733 145.75 251.338 145.915C250.947 146.078 250.497 146.159 249.986 146.159ZM258.041 138.364V139.134H254.397V138.364H258.041ZM255.536 136.534H256.426V144.006C256.426 144.325 256.48 144.575 256.59 144.757C256.699 144.936 256.842 145.064 257.017 145.14C257.193 145.213 257.38 145.249 257.579 145.249C257.695 145.249 257.794 145.243 257.877 145.229C257.96 145.213 258.033 145.196 258.096 145.18L258.285 145.98C258.199 146.013 258.093 146.043 257.967 146.07C257.841 146.099 257.685 146.114 257.499 146.114C257.175 146.114 256.861 146.043 256.56 145.901C256.262 145.758 256.016 145.546 255.824 145.264C255.632 144.982 255.536 144.633 255.536 144.215V136.534ZM260.757 146.075C260.562 146.075 260.393 146.005 260.25 145.866C260.111 145.723 260.041 145.554 260.041 145.359C260.041 145.16 260.111 144.991 260.25 144.852C260.393 144.712 260.562 144.643 260.757 144.643C260.956 144.643 261.125 144.712 261.264 144.852C261.403 144.991 261.473 145.16 261.473 145.359C261.473 145.488 261.44 145.607 261.374 145.717C261.311 145.826 261.224 145.914 261.115 145.98C261.009 146.043 260.89 146.075 260.757 146.075ZM267.316 136.653V135.818H274.699V136.653H271.472V146H270.542V136.653H267.316ZM277.702 146.174C277.241 146.174 276.82 146.085 276.439 145.906C276.058 145.723 275.754 145.461 275.529 145.12C275.304 144.775 275.191 144.358 275.191 143.867C275.191 143.489 275.262 143.171 275.405 142.913C275.547 142.654 275.749 142.442 276.011 142.276C276.273 142.111 276.583 141.98 276.941 141.884C277.299 141.787 277.693 141.713 278.124 141.66C278.552 141.607 278.913 141.56 279.208 141.521C279.506 141.481 279.733 141.418 279.889 141.332C280.045 141.246 280.123 141.106 280.123 140.914V140.735C280.123 140.215 279.967 139.805 279.655 139.507C279.347 139.205 278.903 139.055 278.323 139.055C277.773 139.055 277.324 139.176 276.976 139.418C276.631 139.66 276.389 139.945 276.25 140.273L275.41 139.969C275.582 139.552 275.821 139.219 276.126 138.97C276.43 138.718 276.772 138.538 277.15 138.428C277.528 138.316 277.91 138.259 278.298 138.259C278.59 138.259 278.893 138.297 279.208 138.374C279.526 138.45 279.821 138.582 280.093 138.771C280.365 138.957 280.585 139.217 280.754 139.552C280.923 139.883 281.008 140.304 281.008 140.815V146H280.123V144.792H280.068C279.962 145.017 279.805 145.236 279.596 145.448C279.387 145.66 279.125 145.834 278.81 145.97C278.495 146.106 278.126 146.174 277.702 146.174ZM277.821 145.364C278.291 145.364 278.699 145.259 279.044 145.05C279.389 144.842 279.654 144.565 279.839 144.22C280.028 143.872 280.123 143.489 280.123 143.072V141.968C280.056 142.031 279.945 142.087 279.79 142.137C279.637 142.187 279.46 142.232 279.258 142.271C279.059 142.308 278.86 142.339 278.661 142.366C278.462 142.392 278.283 142.415 278.124 142.435C277.693 142.488 277.325 142.571 277.02 142.684C276.715 142.797 276.482 142.952 276.319 143.151C276.157 143.347 276.076 143.599 276.076 143.907C276.076 144.371 276.242 144.731 276.573 144.986C276.904 145.238 277.32 145.364 277.821 145.364ZM284.167 143.116L284.157 141.958H284.356L287.936 138.364H289.054L285.519 141.903L285.44 141.918L284.167 143.116ZM283.362 146V135.818H284.247V146H283.362ZM288.119 146L285.017 142.077L285.654 141.466L289.253 146H288.119ZM293.49 146.159C292.777 146.159 292.161 145.993 291.641 145.662C291.12 145.327 290.718 144.865 290.433 144.275C290.151 143.682 290.01 142.999 290.01 142.227C290.01 141.458 290.151 140.775 290.433 140.178C290.718 139.578 291.11 139.109 291.611 138.771C292.115 138.43 292.696 138.259 293.356 138.259C293.77 138.259 294.17 138.335 294.554 138.488C294.938 138.637 295.283 138.867 295.588 139.179C295.896 139.487 296.14 139.877 296.319 140.347C296.498 140.815 296.587 141.368 296.587 142.008V142.445H290.621V141.665H295.683C295.683 141.174 295.583 140.733 295.384 140.342C295.189 139.948 294.915 139.636 294.564 139.408C294.216 139.179 293.813 139.065 293.356 139.065C292.872 139.065 292.446 139.194 292.078 139.452C291.71 139.711 291.422 140.052 291.213 140.477C291.008 140.901 290.903 141.365 290.9 141.869V142.336C290.9 142.942 291.004 143.473 291.213 143.927C291.425 144.378 291.725 144.727 292.113 144.976C292.501 145.224 292.96 145.349 293.49 145.349C293.851 145.349 294.168 145.292 294.44 145.18C294.715 145.067 294.945 144.916 295.131 144.727C295.32 144.535 295.462 144.325 295.558 144.096L296.398 144.369C296.282 144.691 296.092 144.987 295.827 145.259C295.565 145.531 295.237 145.75 294.842 145.915C294.451 146.078 294 146.159 293.49 146.159ZM307.65 148.864V144.583H307.571C307.468 144.815 307.322 145.054 307.133 145.299C306.944 145.541 306.694 145.745 306.383 145.911C306.071 146.076 305.685 146.159 305.224 146.159C304.601 146.159 304.053 145.993 303.579 145.662C303.108 145.33 302.74 144.868 302.475 144.275C302.213 143.682 302.082 142.991 302.082 142.202C302.082 141.416 302.213 140.728 302.475 140.138C302.74 139.545 303.11 139.085 303.584 138.756C304.058 138.425 304.609 138.259 305.239 138.259C305.706 138.259 306.093 138.342 306.398 138.508C306.706 138.674 306.953 138.877 307.138 139.119C307.324 139.358 307.468 139.592 307.571 139.82H307.675V138.364H308.54V148.864H307.65ZM305.329 145.349C305.823 145.349 306.243 145.214 306.591 144.946C306.939 144.674 307.205 144.301 307.387 143.827C307.573 143.35 307.665 142.803 307.665 142.187C307.665 141.577 307.574 141.038 307.392 140.571C307.21 140.1 306.944 139.732 306.596 139.467C306.252 139.199 305.829 139.065 305.329 139.065C304.818 139.065 304.387 139.204 304.036 139.482C303.685 139.757 303.42 140.13 303.241 140.601C303.062 141.071 302.972 141.6 302.972 142.187C302.972 142.78 303.063 143.315 303.246 143.793C303.428 144.27 303.695 144.649 304.046 144.931C304.397 145.21 304.825 145.349 305.329 145.349ZM315.722 143.082V138.364H316.607V146H315.722V144.732H315.652C315.473 145.123 315.19 145.45 314.802 145.712C314.414 145.97 313.94 146.099 313.38 146.099C312.893 146.099 312.46 145.993 312.083 145.781C311.705 145.566 311.408 145.251 311.193 144.837C310.977 144.422 310.869 143.914 310.869 143.31V138.364H311.754V143.256C311.754 143.852 311.93 144.333 312.281 144.697C312.633 145.059 313.084 145.239 313.634 145.239C313.978 145.239 314.31 145.156 314.628 144.991C314.946 144.825 315.208 144.583 315.414 144.265C315.619 143.943 315.722 143.549 315.722 143.082ZM318.96 146V138.364H319.849V146H318.96ZM319.412 137.051C319.23 137.051 319.074 136.99 318.945 136.867C318.815 136.741 318.751 136.59 318.751 136.415C318.751 136.239 318.815 136.09 318.945 135.967C319.074 135.841 319.23 135.778 319.412 135.778C319.594 135.778 319.75 135.841 319.879 135.967C320.009 136.09 320.073 136.239 320.073 136.415C320.073 136.59 320.009 136.741 319.879 136.867C319.75 136.99 319.594 137.051 319.412 137.051ZM321.951 146V145.299L326.366 139.263V139.199H322.14V138.364H327.504V139.094L323.169 145.1V145.165H327.664V146H321.951ZM329.375 146V145.299L333.79 139.263V139.199H329.564V138.364H334.928V139.094L330.593 145.1V145.165H335.087V146H329.375ZM339.906 146.159C339.193 146.159 338.577 145.993 338.057 145.662C337.536 145.327 337.134 144.865 336.849 144.275C336.567 143.682 336.426 142.999 336.426 142.227C336.426 141.458 336.567 140.775 336.849 140.178C337.134 139.578 337.526 139.109 338.027 138.771C338.531 138.43 339.112 138.259 339.772 138.259C340.186 138.259 340.586 138.335 340.97 138.488C341.354 138.637 341.699 138.867 342.004 139.179C342.312 139.487 342.556 139.877 342.735 140.347C342.914 140.815 343.003 141.368 343.003 142.008V142.445H337.037V141.665H342.099C342.099 141.174 341.999 140.733 341.8 140.342C341.605 139.948 341.331 139.636 340.98 139.408C340.632 139.179 340.229 139.065 339.772 139.065C339.288 139.065 338.862 139.194 338.494 139.452C338.126 139.711 337.838 140.052 337.629 140.477C337.424 140.901 337.319 141.365 337.316 141.869V142.336C337.316 142.942 337.42 143.473 337.629 143.927C337.841 144.378 338.141 144.727 338.529 144.976C338.917 145.224 339.376 145.349 339.906 145.349C340.267 145.349 340.584 145.292 340.856 145.18C341.131 145.067 341.361 144.916 341.547 144.727C341.736 144.535 341.878 144.325 341.974 144.096L342.814 144.369C342.698 144.691 342.508 144.987 342.243 145.259C341.981 145.531 341.653 145.75 341.258 145.915C340.867 146.078 340.416 146.159 339.906 146.159ZM350.084 140.039L349.274 140.268C349.194 140.039 349.082 139.832 348.936 139.646C348.79 139.461 348.599 139.313 348.364 139.204C348.132 139.094 347.844 139.04 347.499 139.04C346.982 139.04 346.558 139.162 346.226 139.408C345.895 139.653 345.729 139.969 345.729 140.357C345.729 140.685 345.842 140.952 346.067 141.158C346.296 141.36 346.647 141.521 347.121 141.64L348.275 141.923C348.914 142.079 349.393 142.326 349.711 142.664C350.033 143.002 350.194 143.426 350.194 143.937C350.194 144.368 350.074 144.75 349.836 145.085C349.597 145.42 349.264 145.683 348.836 145.876C348.412 146.065 347.92 146.159 347.36 146.159C346.614 146.159 345.999 145.992 345.515 145.657C345.031 145.319 344.721 144.832 344.586 144.195L345.436 143.987C345.545 144.441 345.759 144.784 346.077 145.016C346.399 145.248 346.821 145.364 347.345 145.364C347.931 145.364 348.4 145.233 348.752 144.971C349.103 144.706 349.279 144.374 349.279 143.977C349.279 143.668 349.176 143.41 348.971 143.201C348.765 142.989 348.453 142.833 348.036 142.734L346.788 142.435C346.125 142.276 345.635 142.024 345.316 141.68C344.998 141.335 344.839 140.907 344.839 140.397C344.839 139.976 344.953 139.607 345.182 139.288C345.411 138.967 345.726 138.715 346.127 138.533C346.528 138.35 346.985 138.259 347.499 138.259C348.198 138.259 348.757 138.418 349.174 138.737C349.595 139.051 349.899 139.486 350.084 140.039ZM358.202 146.174C357.741 146.174 357.32 146.085 356.939 145.906C356.558 145.723 356.254 145.461 356.029 145.12C355.804 144.775 355.691 144.358 355.691 143.867C355.691 143.489 355.762 143.171 355.905 142.913C356.047 142.654 356.249 142.442 356.511 142.276C356.773 142.111 357.083 141.98 357.441 141.884C357.799 141.787 358.193 141.713 358.624 141.66C359.052 141.607 359.413 141.56 359.708 141.521C360.006 141.481 360.233 141.418 360.389 141.332C360.545 141.246 360.623 141.106 360.623 140.914V140.735C360.623 140.215 360.467 139.805 360.155 139.507C359.847 139.205 359.403 139.055 358.823 139.055C358.273 139.055 357.824 139.176 357.476 139.418C357.131 139.66 356.889 139.945 356.75 140.273L355.91 139.969C356.082 139.552 356.321 139.219 356.626 138.97C356.93 138.718 357.272 138.538 357.65 138.428C358.028 138.316 358.41 138.259 358.798 138.259C359.09 138.259 359.393 138.297 359.708 138.374C360.026 138.45 360.321 138.582 360.593 138.771C360.865 138.957 361.085 139.217 361.254 139.552C361.423 139.883 361.508 140.304 361.508 140.815V146H360.623V144.792H360.568C360.462 145.017 360.305 145.236 360.096 145.448C359.887 145.66 359.625 145.834 359.31 145.97C358.995 146.106 358.626 146.174 358.202 146.174ZM358.321 145.364C358.791 145.364 359.199 145.259 359.544 145.05C359.889 144.842 360.154 144.565 360.339 144.22C360.528 143.872 360.623 143.489 360.623 143.072V141.968C360.556 142.031 360.445 142.087 360.29 142.137C360.137 142.187 359.96 142.232 359.758 142.271C359.559 142.308 359.36 142.339 359.161 142.366C358.962 142.392 358.783 142.415 358.624 142.435C358.193 142.488 357.825 142.571 357.52 142.684C357.215 142.797 356.982 142.952 356.819 143.151C356.657 143.347 356.576 143.599 356.576 143.907C356.576 144.371 356.742 144.731 357.073 144.986C357.404 145.238 357.82 145.364 358.321 145.364ZM364.747 141.227V146H363.862V138.364H364.722V139.562H364.801C364.98 139.171 365.259 138.857 365.637 138.622C366.018 138.384 366.488 138.264 367.048 138.264C367.562 138.264 368.013 138.372 368.401 138.587C368.792 138.799 369.095 139.113 369.311 139.527C369.529 139.941 369.639 140.45 369.639 141.053V146H368.754V141.108C368.754 140.482 368.578 139.986 368.227 139.621C367.879 139.257 367.411 139.075 366.825 139.075C366.424 139.075 366.067 139.161 365.756 139.333C365.444 139.505 365.197 139.754 365.015 140.079C364.836 140.4 364.747 140.783 364.747 141.227ZM374.718 146.159C374.092 146.159 373.543 145.993 373.073 145.662C372.602 145.33 372.234 144.868 371.969 144.275C371.707 143.682 371.576 142.991 371.576 142.202C371.576 141.416 371.707 140.728 371.969 140.138C372.234 139.545 372.604 139.085 373.078 138.756C373.552 138.425 374.104 138.259 374.733 138.259C375.197 138.259 375.583 138.342 375.892 138.508C376.2 138.67 376.447 138.872 376.632 139.114C376.818 139.356 376.962 139.592 377.065 139.82H377.145V135.818H378.034V146H377.169V144.583H377.065C376.962 144.815 376.816 145.054 376.627 145.299C376.439 145.541 376.188 145.745 375.877 145.911C375.569 146.076 375.182 146.159 374.718 146.159ZM374.823 145.349C375.317 145.349 375.738 145.214 376.086 144.946C376.434 144.674 376.699 144.301 376.881 143.827C377.067 143.35 377.159 142.803 377.159 142.187C377.159 141.577 377.068 141.038 376.886 140.571C376.704 140.1 376.439 139.732 376.091 139.467C375.743 139.199 375.32 139.065 374.823 139.065C374.312 139.065 373.882 139.204 373.53 139.482C373.182 139.757 372.917 140.13 372.735 140.601C372.556 141.071 372.466 141.6 372.466 142.187C372.466 142.78 372.557 143.315 372.74 143.793C372.922 144.27 373.187 144.649 373.535 144.931C373.886 145.21 374.316 145.349 374.823 145.349ZM387.475 146.159C386.793 146.159 386.198 145.988 385.691 145.647C385.187 145.306 384.796 144.838 384.517 144.245C384.239 143.652 384.1 142.976 384.1 142.217C384.1 141.451 384.241 140.77 384.522 140.173C384.807 139.577 385.202 139.109 385.706 138.771C386.209 138.43 386.794 138.259 387.461 138.259C387.971 138.259 388.433 138.359 388.848 138.558C389.262 138.753 389.603 139.03 389.872 139.388C390.144 139.742 390.314 140.157 390.384 140.631H389.489C389.396 140.2 389.172 139.832 388.818 139.527C388.467 139.219 388.019 139.065 387.475 139.065C386.988 139.065 386.557 139.197 386.183 139.462C385.808 139.724 385.515 140.09 385.303 140.561C385.094 141.028 384.99 141.57 384.99 142.187C384.99 142.807 385.092 143.355 385.298 143.832C385.503 144.306 385.792 144.678 386.163 144.946C386.538 145.214 386.975 145.349 387.475 145.349C387.814 145.349 388.122 145.286 388.4 145.16C388.682 145.031 388.917 144.848 389.106 144.613C389.298 144.378 389.428 144.098 389.494 143.773H390.389C390.323 144.233 390.158 144.644 389.897 145.006C389.638 145.364 389.302 145.645 388.887 145.851C388.476 146.056 388.006 146.159 387.475 146.159ZM393.17 141.227V146H392.286V135.818H393.17V139.562H393.25C393.429 139.167 393.706 138.853 394.08 138.617C394.458 138.382 394.935 138.264 395.512 138.264C396.029 138.264 396.483 138.37 396.874 138.582C397.265 138.795 397.57 139.108 397.789 139.522C398.008 139.936 398.117 140.447 398.117 141.053V146H397.227V141.108C397.227 140.478 397.052 139.983 396.7 139.621C396.352 139.257 395.882 139.075 395.288 139.075C394.881 139.075 394.518 139.161 394.2 139.333C393.881 139.505 393.629 139.754 393.444 140.079C393.262 140.4 393.17 140.783 393.17 141.227ZM403.535 146.159C402.822 146.159 402.206 145.993 401.686 145.662C401.165 145.327 400.762 144.865 400.477 144.275C400.196 143.682 400.055 142.999 400.055 142.227C400.055 141.458 400.196 140.775 400.477 140.178C400.762 139.578 401.155 139.109 401.656 138.771C402.16 138.43 402.741 138.259 403.401 138.259C403.815 138.259 404.214 138.335 404.599 138.488C404.983 138.637 405.328 138.867 405.633 139.179C405.941 139.487 406.185 139.877 406.364 140.347C406.543 140.815 406.632 141.368 406.632 142.008V142.445H400.666V141.665H405.727C405.727 141.174 405.628 140.733 405.429 140.342C405.234 139.948 404.96 139.636 404.609 139.408C404.261 139.179 403.858 139.065 403.401 139.065C402.917 139.065 402.491 139.194 402.123 139.452C401.755 139.711 401.467 140.052 401.258 140.477C401.052 140.901 400.948 141.365 400.945 141.869V142.336C400.945 142.942 401.049 143.473 401.258 143.927C401.47 144.378 401.77 144.727 402.158 144.976C402.546 145.224 403.005 145.349 403.535 145.349C403.896 145.349 404.213 145.292 404.485 145.18C404.76 145.067 404.99 144.916 405.176 144.727C405.365 144.535 405.507 144.325 405.603 144.096L406.443 144.369C406.327 144.691 406.137 144.987 405.872 145.259C405.61 145.531 405.282 145.75 404.887 145.915C404.496 146.078 404.045 146.159 403.535 146.159ZM411.565 146.159C410.883 146.159 410.288 145.988 409.781 145.647C409.277 145.306 408.886 144.838 408.607 144.245C408.329 143.652 408.19 142.976 408.19 142.217C408.19 141.451 408.33 140.77 408.612 140.173C408.897 139.577 409.292 139.109 409.795 138.771C410.299 138.43 410.884 138.259 411.55 138.259C412.061 138.259 412.523 138.359 412.938 138.558C413.352 138.753 413.693 139.03 413.962 139.388C414.233 139.742 414.404 140.157 414.474 140.631H413.579C413.486 140.2 413.262 139.832 412.908 139.527C412.556 139.219 412.109 139.065 411.565 139.065C411.078 139.065 410.647 139.197 410.273 139.462C409.898 139.724 409.605 140.09 409.393 140.561C409.184 141.028 409.08 141.57 409.08 142.187C409.08 142.807 409.182 143.355 409.388 143.832C409.593 144.306 409.882 144.678 410.253 144.946C410.627 145.214 411.065 145.349 411.565 145.349C411.903 145.349 412.212 145.286 412.49 145.16C412.772 145.031 413.007 144.848 413.196 144.613C413.388 144.378 413.518 144.098 413.584 143.773H414.479C414.412 144.233 414.248 144.644 413.987 145.006C413.728 145.364 413.392 145.645 412.977 145.851C412.566 146.056 412.096 146.159 411.565 146.159ZM417.181 143.116L417.171 141.958H417.37L420.949 138.364H422.068L418.533 141.903L418.453 141.918L417.181 143.116ZM416.375 146V135.818H417.26V146H416.375ZM421.133 146L418.031 142.077L418.667 141.466L422.267 146H421.133ZM429.801 146.174C429.34 146.174 428.92 146.085 428.538 145.906C428.157 145.723 427.854 145.461 427.629 145.12C427.403 144.775 427.29 144.358 427.29 143.867C427.29 143.489 427.362 143.171 427.504 142.913C427.647 142.654 427.849 142.442 428.111 142.276C428.373 142.111 428.683 141.98 429.04 141.884C429.398 141.787 429.793 141.713 430.224 141.66C430.651 141.607 431.013 141.56 431.308 141.521C431.606 141.481 431.833 141.418 431.989 141.332C432.144 141.246 432.222 141.106 432.222 140.914V140.735C432.222 140.215 432.067 139.805 431.755 139.507C431.447 139.205 431.003 139.055 430.423 139.055C429.872 139.055 429.423 139.176 429.075 139.418C428.731 139.66 428.489 139.945 428.349 140.273L427.509 139.969C427.682 139.552 427.92 139.219 428.225 138.97C428.53 138.718 428.871 138.538 429.249 138.428C429.627 138.316 430.01 138.259 430.398 138.259C430.689 138.259 430.993 138.297 431.308 138.374C431.626 138.45 431.921 138.582 432.192 138.771C432.464 138.957 432.685 139.217 432.854 139.552C433.023 139.883 433.107 140.304 433.107 140.815V146H432.222V144.792H432.168C432.062 145.017 431.904 145.236 431.695 145.448C431.487 145.66 431.225 145.834 430.91 145.97C430.595 146.106 430.225 146.174 429.801 146.174ZM429.92 145.364C430.391 145.364 430.799 145.259 431.143 145.05C431.488 144.842 431.753 144.565 431.939 144.22C432.128 143.872 432.222 143.489 432.222 143.072V141.968C432.156 142.031 432.045 142.087 431.889 142.137C431.737 142.187 431.559 142.232 431.357 142.271C431.158 142.308 430.96 142.339 430.761 142.366C430.562 142.392 430.383 142.415 430.224 142.435C429.793 142.488 429.425 142.571 429.12 142.684C428.815 142.797 428.581 142.952 428.419 143.151C428.257 143.347 428.175 143.599 428.175 143.907C428.175 144.371 428.341 144.731 428.673 144.986C429.004 145.238 429.42 145.364 429.92 145.364ZM438.375 149.023C437.854 149.023 437.399 148.955 437.007 148.819C436.616 148.686 436.287 148.504 436.018 148.272C435.75 148.04 435.541 147.78 435.392 147.491L436.118 147.014C436.227 147.206 436.373 147.395 436.555 147.581C436.741 147.767 436.981 147.921 437.276 148.043C437.574 148.166 437.94 148.227 438.375 148.227C439.051 148.227 439.596 148.058 440.01 147.72C440.428 147.382 440.637 146.857 440.637 146.144V144.424H440.557C440.454 144.656 440.307 144.888 440.115 145.12C439.922 145.349 439.671 145.539 439.359 145.692C439.051 145.844 438.668 145.92 438.211 145.92C437.601 145.92 437.059 145.77 436.585 145.468C436.114 145.166 435.743 144.736 435.471 144.175C435.203 143.612 435.069 142.941 435.069 142.162C435.069 141.39 435.199 140.71 435.461 140.124C435.726 139.537 436.096 139.08 436.57 138.751C437.044 138.423 437.596 138.259 438.225 138.259C438.693 138.259 439.081 138.342 439.389 138.508C439.697 138.67 439.944 138.872 440.13 139.114C440.319 139.356 440.466 139.592 440.572 139.82H440.662V138.364H441.527V146.199C441.527 146.845 441.389 147.377 441.114 147.795C440.839 148.212 440.464 148.521 439.99 148.719C439.516 148.922 438.978 149.023 438.375 149.023ZM438.315 145.11C438.806 145.11 439.225 144.992 439.573 144.757C439.921 144.518 440.188 144.177 440.373 143.733C440.559 143.289 440.652 142.76 440.652 142.147C440.652 141.55 440.56 141.022 440.378 140.561C440.196 140.097 439.931 139.732 439.583 139.467C439.238 139.199 438.815 139.065 438.315 139.065C437.805 139.065 437.374 139.202 437.022 139.477C436.671 139.752 436.406 140.124 436.227 140.591C436.048 141.055 435.958 141.574 435.958 142.147C435.958 142.73 436.05 143.246 436.232 143.693C436.414 144.137 436.681 144.485 437.032 144.737C437.384 144.986 437.811 145.11 438.315 145.11ZM446.002 146.174C445.542 146.174 445.121 146.085 444.74 145.906C444.358 145.723 444.055 145.461 443.83 145.12C443.604 144.775 443.492 144.358 443.492 143.867C443.492 143.489 443.563 143.171 443.705 142.913C443.848 142.654 444.05 142.442 444.312 142.276C444.574 142.111 444.884 141.98 445.242 141.884C445.6 141.787 445.994 141.713 446.425 141.66C446.852 141.607 447.214 141.56 447.509 141.521C447.807 141.481 448.034 141.418 448.19 141.332C448.346 141.246 448.423 141.106 448.423 140.914V140.735C448.423 140.215 448.268 139.805 447.956 139.507C447.648 139.205 447.204 139.055 446.624 139.055C446.074 139.055 445.624 139.176 445.276 139.418C444.932 139.66 444.69 139.945 444.551 140.273L443.71 139.969C443.883 139.552 444.121 139.219 444.426 138.97C444.731 138.718 445.073 138.538 445.45 138.428C445.828 138.316 446.211 138.259 446.599 138.259C446.891 138.259 447.194 138.297 447.509 138.374C447.827 138.45 448.122 138.582 448.394 138.771C448.665 138.957 448.886 139.217 449.055 139.552C449.224 139.883 449.308 140.304 449.308 140.815V146H448.423V144.792H448.369C448.263 145.017 448.105 145.236 447.896 145.448C447.688 145.66 447.426 145.834 447.111 145.97C446.796 146.106 446.427 146.174 446.002 146.174ZM446.122 145.364C446.592 145.364 447 145.259 447.345 145.05C447.689 144.842 447.954 144.565 448.14 144.22C448.329 143.872 448.423 143.489 448.423 143.072V141.968C448.357 142.031 448.246 142.087 448.09 142.137C447.938 142.187 447.761 142.232 447.558 142.271C447.36 142.308 447.161 142.339 446.962 142.366C446.763 142.392 446.584 142.415 446.425 142.435C445.994 142.488 445.626 142.571 445.321 142.684C445.016 142.797 444.783 142.952 444.62 143.151C444.458 143.347 444.377 143.599 444.377 143.907C444.377 144.371 444.542 144.731 444.874 144.986C445.205 145.238 445.621 145.364 446.122 145.364ZM451.672 146V138.364H452.562V146H451.672ZM452.125 137.051C451.943 137.051 451.787 136.99 451.657 136.867C451.528 136.741 451.464 136.59 451.464 136.415C451.464 136.239 451.528 136.09 451.657 135.967C451.787 135.841 451.943 135.778 452.125 135.778C452.307 135.778 452.463 135.841 452.592 135.967C452.721 136.09 452.786 136.239 452.786 136.415C452.786 136.59 452.721 136.741 452.592 136.867C452.463 136.99 452.307 137.051 452.125 137.051ZM455.788 141.227V146H454.903V138.364H455.763V139.562H455.842C456.021 139.171 456.3 138.857 456.678 138.622C457.059 138.384 457.529 138.264 458.089 138.264C458.603 138.264 459.054 138.372 459.442 138.587C459.833 138.799 460.136 139.113 460.352 139.527C460.57 139.941 460.68 140.45 460.68 141.053V146H459.795V141.108C459.795 140.482 459.619 139.986 459.268 139.621C458.92 139.257 458.452 139.075 457.866 139.075C457.465 139.075 457.108 139.161 456.797 139.333C456.485 139.505 456.238 139.754 456.056 140.079C455.877 140.4 455.788 140.783 455.788 141.227ZM463.716 146.075C463.521 146.075 463.352 146.005 463.209 145.866C463.07 145.723 463 145.554 463 145.359C463 145.16 463.07 144.991 463.209 144.852C463.352 144.712 463.521 144.643 463.716 144.643C463.915 144.643 464.084 144.712 464.223 144.852C464.362 144.991 464.432 145.16 464.432 145.359C464.432 145.488 464.399 145.607 464.333 145.717C464.27 145.826 464.183 145.914 464.074 145.98C463.968 146.043 463.849 146.075 463.716 146.075Z" fill="#808080"/>
</svg>
