<svg width="24" height="24" viewBox="0 0 24 24" fill="none" xmlns="http://www.w3.org/2000/svg">
<g id="fi-br-book-alt" clip-path="url(#clip0_10001_10705)">
<path id="Vector" d="M22.024 2.27767C21.4001 1.75779 20.6688 1.38253 19.8826 1.17886C19.0964 0.97518 18.2749 0.948137 17.477 1.09967L14.194 1.78767C13.3783 1.93358 12.6189 2.30255 12 2.85367C11.3941 2.30662 10.6479 1.93891 9.84501 1.79167L6.48401 1.09167C5.69166 0.947587 4.87735 0.979266 4.0986 1.18447C3.31984 1.38967 2.59565 1.76338 1.9772 2.27921C1.35874 2.79503 0.861107 3.44038 0.519459 4.16966C0.17781 4.89893 0.000482738 5.69433 5.29487e-06 6.49967V16.2917C-0.00177769 17.5762 0.446789 18.8208 1.26768 19.8089C2.08858 20.797 3.22986 21.466 4.49301 21.6997L10.3 22.8467C10.8589 22.9486 11.4259 22.9998 11.994 22.9997C12.5736 22.9993 13.1519 22.9467 13.722 22.8427L19.484 21.6997C20.7505 21.4694 21.8961 20.8021 22.7213 19.8141C23.5465 18.8261 23.999 17.58 24 16.2927V6.49967C24.0008 5.69402 23.8242 4.89808 23.4826 4.1684C23.1411 3.43871 22.6431 2.79318 22.024 2.27767ZM10.5 19.8287L5.05301 18.7527C4.47688 18.648 3.95579 18.3444 3.5806 17.8948C3.20542 17.4452 2.99994 16.8782 3.00001 16.2927V6.49967C3.00184 5.83823 3.265 5.20432 3.73215 4.73605C4.1993 4.26778 4.83257 4.0031 5.49401 3.99967C5.63284 3.9994 5.77142 4.01178 5.90801 4.03667L9.26901 4.73667C9.61436 4.79962 9.9267 4.98171 10.1516 5.25123C10.3766 5.52075 10.4998 5.86062 10.5 6.21167V19.8287ZM21 16.2927C20.9989 16.8818 20.7903 17.4516 20.4109 17.9022C20.0314 18.3528 19.5053 18.6554 18.925 18.7567L13.5 19.8287V6.21167C13.5021 5.85405 13.631 5.50875 13.8637 5.23721C14.0964 4.96566 14.4179 4.78547 14.771 4.72867L18.053 4.04167C18.4131 3.97622 18.7832 3.99065 19.1372 4.08394C19.4911 4.17722 19.8202 4.34708 20.1013 4.58152C20.3824 4.81597 20.6086 5.10927 20.7638 5.44071C20.9191 5.77215 20.9998 6.13365 21 6.49967V16.2927Z" fill="#848484"/>
</g>
<defs>
<clipPath id="clip0_10001_10705">
<rect width="24" height="24" fill="white"/>
</clipPath>
</defs>
</svg>
