<svg width="24" height="24" viewBox="0 0 24 24" fill="none" xmlns="http://www.w3.org/2000/svg">
<g id="fi-br-notebook" clip-path="url(#clip0_10001_10713)">
<path id="Vector" d="M19 2.607V1.5C19 1.10218 18.842 0.720644 18.5607 0.43934C18.2794 0.158035 17.8978 0 17.5 0C17.1022 0 16.7206 0.158035 16.4393 0.43934C16.158 0.720644 16 1.10218 16 1.5V2H13.5V1.5C13.5 1.10218 13.342 0.720644 13.0607 0.43934C12.7794 0.158035 12.3978 0 12 0C11.6022 0 11.2206 0.158035 10.9393 0.43934C10.658 0.720644 10.5 1.10218 10.5 1.5V2H8V1.5C8 1.10218 7.84196 0.720644 7.56066 0.43934C7.27936 0.158035 6.89782 0 6.5 0C6.10218 0 5.72064 0.158035 5.43934 0.43934C5.15804 0.720644 5 1.10218 5 1.5V2.607C4.09794 3.06733 3.34049 3.76778 2.81114 4.63115C2.2818 5.49452 2.0011 6.48728 2 7.5V18.5C2.00159 19.9582 2.58156 21.3562 3.61267 22.3873C4.64377 23.4184 6.0418 23.9984 7.5 24H16.5C17.9581 23.9981 19.356 23.4181 20.387 22.387C21.4181 21.356 21.9981 19.9581 22 18.5V7.5C21.9989 6.48728 21.7182 5.49452 21.1889 4.63115C20.6595 3.76778 19.9021 3.06733 19 2.607ZM19 18.5C19 19.163 18.7366 19.7989 18.2678 20.2678C17.7989 20.7366 17.163 21 16.5 21H7.5C6.83696 21 6.20107 20.7366 5.73223 20.2678C5.26339 19.7989 5 19.163 5 18.5V7.5C5 6.83696 5.26339 6.20107 5.73223 5.73223C6.20107 5.26339 6.83696 5 7.5 5H16.5C17.163 5 17.7989 5.26339 18.2678 5.73223C18.7366 6.20107 19 6.83696 19 7.5V18.5ZM17 8.5C17 8.89782 16.842 9.27936 16.5607 9.56066C16.2794 9.84196 15.8978 10 15.5 10H8.5C8.10218 10 7.72064 9.84196 7.43934 9.56066C7.15804 9.27936 7 8.89782 7 8.5C7 8.10218 7.15804 7.72064 7.43934 7.43934C7.72064 7.15804 8.10218 7 8.5 7H15.5C15.8978 7 16.2794 7.15804 16.5607 7.43934C16.842 7.72064 17 8.10218 17 8.5ZM13.5 13.5C13.5 13.8978 13.342 14.2794 13.0607 14.5607C12.7794 14.842 12.3978 15 12 15H8.5C8.10218 15 7.72064 14.842 7.43934 14.5607C7.15804 14.2794 7 13.8978 7 13.5C7 13.1022 7.15804 12.7206 7.43934 12.4393C7.72064 12.158 8.10218 12 8.5 12H12C12.3978 12 12.7794 12.158 13.0607 12.4393C13.342 12.7206 13.5 13.1022 13.5 13.5Z" fill="#848484"/>
</g>
<defs>
<clipPath id="clip0_10001_10713">
<rect width="24" height="24" fill="white"/>
</clipPath>
</defs>
</svg>
