<svg width="24" height="24" viewBox="0 0 24 24" fill="none" xmlns="http://www.w3.org/2000/svg">
<path d="M13.0431 11.6459C13.0896 11.6923 13.1266 11.7475 13.1518 11.8082C13.177 11.869 13.19 11.9341 13.19 11.9999C13.19 12.0656 13.177 12.1308 13.1518 12.1915C13.1266 12.2523 13.0896 12.3074 13.0431 12.3539L8.45708 16.9389C8.17569 17.2201 8.01755 17.6017 8.01746 17.9995C8.01736 18.3974 8.17532 18.779 8.45658 19.0604C8.73784 19.3418 9.11937 19.4999 9.51723 19.5C9.91508 19.5001 10.2967 19.3421 10.5781 19.0609L15.1641 14.4749C15.8193 13.8178 16.1873 12.9278 16.1873 11.9999C16.1873 11.072 15.8193 10.1819 15.1641 9.52487L10.5781 4.93887C10.2967 4.65761 9.91508 4.49965 9.51723 4.49974C9.11937 4.49984 8.73784 4.65798 8.45658 4.93937C8.17532 5.22077 8.01736 5.60237 8.01746 6.00022C8.01755 6.39808 8.17569 6.77961 8.45708 7.06087L13.0431 11.6459Z" fill="#848484"/>
</svg>
