<svg width="24" height="24" viewBox="0 0 24 24" fill="none" xmlns="http://www.w3.org/2000/svg">
<g id="Group">
<path id="Vector" d="M22.975 8.6949L15.889 1.60891C13.7396 -0.535003 10.2605 -0.535003 8.11101 1.60891L1.02503 8.6949C0.366528 9.34988 -0.0025647 10.2411 1.34159e-05 11.1699V21.5479C0.00221654 22.9025 1.1004 23.9997 2.45504 24.0009H21.545C22.8996 23.9998 23.9978 22.9025 24 21.5479V11.1699C24.0026 10.2411 23.6335 9.34988 22.975 8.6949ZM21 21.0009H16V17.8189C16 15.7102 14.2906 14.0009 12.182 14.0009H11.818C9.7094 14.0009 8.00001 15.7102 8.00001 17.8189V21.0009H3.00001V11.1699C3.00034 11.0373 3.05274 10.9102 3.14602 10.8159L10.232 3.72991C11.2082 2.75346 12.7911 2.75327 13.7675 3.72944C13.7677 3.72958 13.7679 3.72977 13.768 3.72991L20.854 10.8159C20.9472 10.9102 20.9997 11.0373 21 11.1699V21.0009H21Z" fill="black"/>
</g>
</svg>
