<svg width="52" height="52" viewBox="0 0 52 52" fill="none" xmlns="http://www.w3.org/2000/svg">
<path d="M0 26C0 11.6406 11.6406 0 26 0C40.3594 0 52 11.6406 52 26C52 40.3594 40.3594 52 26 52C11.6406 52 0 40.3594 0 26Z" fill="#FBEBD0"/>
<path fill-rule="evenodd" clip-rule="evenodd" d="M26 40.625C29.8788 40.625 33.5987 39.0842 36.3414 36.3414C39.0842 33.5987 40.625 29.8788 40.625 26C40.625 22.1212 39.0842 18.4013 36.3414 15.6586C33.5987 12.9158 29.8788 11.375 26 11.375C22.1212 11.375 18.4013 12.9158 15.6586 15.6586C12.9158 18.4013 11.375 22.1212 11.375 26C11.375 29.8788 12.9158 33.5987 15.6586 36.3414C18.4013 39.0842 22.1212 40.625 26 40.625ZM27.8281 20.5156C27.8281 20.0308 27.6355 19.5658 27.2927 19.2229C26.9498 18.8801 26.4848 18.6875 26 18.6875C25.5152 18.6875 25.0502 18.8801 24.7073 19.2229C24.3645 19.5658 24.1719 20.0308 24.1719 20.5156V24.1719H20.5156C20.0308 24.1719 19.5658 24.3645 19.2229 24.7073C18.8801 25.0502 18.6875 25.5152 18.6875 26C18.6875 26.4848 18.8801 26.9498 19.2229 27.2927C19.5658 27.6355 20.0308 27.8281 20.5156 27.8281H24.1719V31.4844C24.1719 31.9692 24.3645 32.4342 24.7073 32.7771C25.0502 33.1199 25.5152 33.3125 26 33.3125C26.4848 33.3125 26.9498 33.1199 27.2927 32.7771C27.6355 32.4342 27.8281 31.9692 27.8281 31.4844V27.8281H31.4844C31.9692 27.8281 32.4342 27.6355 32.7771 27.2927C33.1199 26.9498 33.3125 26.4848 33.3125 26C33.3125 25.5152 33.1199 25.0502 32.7771 24.7073C32.4342 24.3645 31.9692 24.1719 31.4844 24.1719H27.8281V20.5156Z" fill="#F7AE30"/>
</svg>
