<svg width="20" height="20" viewBox="0 0 20 20" fill="none" xmlns="http://www.w3.org/2000/svg">
<g clip-path="url(#clip0_10377_25346)">
<path d="M14.9477 1.89183C14.1657 1.18678 13.2417 0.657577 12.2379 0.339885C11.234 0.0221928 10.1738 -0.0766017 9.12853 0.0501611C7.698 0.240637 6.35062 0.832173 5.2422 1.75636C4.13379 2.68054 3.30963 3.89961 2.86505 5.27258C2.42047 6.64555 2.37363 8.11632 2.72994 9.5148C3.08626 10.9133 3.83117 12.1823 4.87853 13.1752C5.67437 13.926 5.83353 15.0002 5.83353 16.4827V16.6102C5.82932 17.5038 6.17975 18.3625 6.80794 18.9981C7.43614 19.6336 8.29078 19.994 9.18437 20.0002H10.816C11.7096 19.994 12.5643 19.6336 13.1925 18.9981C13.8207 18.3625 14.1711 17.5038 14.1669 16.6102V16.1743C14.1669 14.7827 14.2919 13.9168 14.9519 13.3285C15.7545 12.6077 16.3964 11.726 16.8358 10.7408C17.2752 9.7556 17.5023 8.68892 17.5023 7.61016C17.5023 6.5314 17.2752 5.46472 16.8358 4.47951C16.3964 3.4943 15.7545 2.61262 14.9519 1.89183H14.9477ZM11.6669 16.6102C11.6718 16.8409 11.585 17.0642 11.4255 17.2311C11.266 17.3979 11.0468 17.4947 10.816 17.5002H9.18437C8.95361 17.4947 8.73444 17.3979 8.57493 17.2311C8.41543 17.0642 8.32861 16.8409 8.33353 16.6102V16.4827C8.33353 16.2668 8.33353 16.0502 8.32187 15.8335H11.6719C11.6719 15.9477 11.6669 16.0618 11.6669 16.1743V16.6102ZM13.2877 11.4627C12.7199 11.9689 12.2928 12.6134 12.0477 13.3335H11.2502V9.23599C11.6288 9.01809 11.9435 8.70458 12.1629 8.32682C12.3823 7.94907 12.4986 7.52032 12.5002 7.08349C12.5002 6.75197 12.3685 6.43403 12.1341 6.19961C11.8997 5.96519 11.5817 5.83349 11.2502 5.83349C10.9187 5.83349 10.6007 5.96519 10.3663 6.19961C10.1319 6.43403 10.0002 6.75197 10.0002 7.08349C10.0002 6.75197 9.86851 6.43403 9.63408 6.19961C9.39966 5.96519 9.08172 5.83349 8.7502 5.83349C8.41868 5.83349 8.10074 5.96519 7.86632 6.19961C7.6319 6.43403 7.5002 6.75197 7.5002 7.08349C7.50181 7.52032 7.61812 7.94907 7.83749 8.32682C8.05686 8.70458 8.3716 9.01809 8.7502 9.23599V13.3335H7.8852C7.61881 12.5838 7.17909 11.9077 6.60187 11.3602C6.00976 10.7985 5.55961 10.1042 5.28852 9.33438C5.01744 8.56459 4.93318 7.7414 5.0427 6.93266C5.18238 5.81887 5.68756 4.78287 6.47911 3.98695C7.27066 3.19102 8.30386 2.68014 9.41687 2.53433C9.61048 2.51156 9.80526 2.50015 10.0002 2.50016C11.2128 2.49721 12.3831 2.94545 13.2835 3.75766C13.8236 4.24356 14.2554 4.83752 14.5512 5.50103C14.847 6.16454 15 6.88279 15.0004 7.60923C15.0008 8.33568 14.8485 9.0541 14.5535 9.71792C14.2584 10.3818 13.8272 10.9762 13.2877 11.4627Z" fill="#848484"/>
</g>
<defs>
<clipPath id="clip0_10377_25346">
<rect width="20" height="20" fill="white"/>
</clipPath>
</defs>
</svg>
