<svg width="14" height="17" viewBox="0 0 14 17" fill="none" xmlns="http://www.w3.org/2000/svg">
<path d="M7.0013 16.914C6.84471 16.914 6.69893 16.9032 6.56397 16.8815C6.42844 16.8605 6.30373 16.8286 6.18984 16.7859C4.42457 16.131 2.9796 14.9636 1.85495 13.2838C0.730295 11.6039 0.167969 9.75323 0.167969 7.73171V3.69577C0.167969 3.33987 0.271323 3.01955 0.478031 2.73483C0.68417 2.45011 0.950955 2.24368 1.27839 2.11556L6.40339 0.193685C6.60269 0.122504 6.802 0.0869141 7.0013 0.0869141C7.20061 0.0869141 7.39991 0.122504 7.59922 0.193685L12.7242 2.11556C13.0517 2.24368 13.3187 2.45011 13.5254 2.73483C13.7316 3.01955 13.8346 3.33987 13.8346 3.69577V7.73171C13.8346 9.75323 13.2723 11.6039 12.1477 13.2838C11.023 14.9636 9.57804 16.131 7.81276 16.7859C7.69887 16.8286 7.57416 16.8605 7.43864 16.8815C7.30368 16.9032 7.1579 16.914 7.0013 16.914ZM7.0013 15.2484C8.38221 14.8213 9.53533 13.9779 10.4607 12.7183C11.386 11.4581 11.927 10.0522 12.0836 8.50046H7.0013V1.77389L1.8763 3.69577V8.11608C1.8763 8.21573 1.89054 8.34386 1.91901 8.50046H7.0013V15.2484Z" fill="#F7F7F7"/>
</svg>
