<svg width="20" height="20" viewBox="0 0 20 20" fill="none" xmlns="http://www.w3.org/2000/svg">
<g clip-path="url(#clip0_10376_25216)">
<path d="M12.5701 11.6806C8.7482 12.4166 12.1773 12.2076 12.2209 15.4166L9.90572 13.1666C9.90572 13.7879 6.95127 12.7916 7.59058 12.7916C8.22988 12.7916 12.6067 10.9166 11.0633 14.6666H12.2209C12.1861 12.6963 10.5957 14.1838 12.6071 13.9344C14.7303 13.7298 16.6221 15.2366 16.8327 17.3C16.8451 17.422 16.8514 17.5445 16.8515 17.667V18.042C16.8515 18.6633 17.3698 19.167 18.0091 19.167C18.6484 19.167 19.1667 18.6633 19.1667 18.042V17.667C19.1629 14.3496 16.3927 11.6633 12.9792 11.667C12.8427 11.6672 12.7063 11.6717 12.5701 11.6806Z" fill="#848484"/>
<path d="M13.6939 10.0002C16.2562 10.0002 18.3334 7.94812 18.3334 5.41683C18.3334 2.88554 16.2562 0.833496 13.6939 0.833496C11.1317 0.833496 10.214 3.12516 11.7604 5.41683C9.82737 8.85433 11.1327 9.99762 13.6939 10.0002ZM13.6939 3.12516C14.9751 3.12516 16.0137 4.15118 16.0137 5.41683C16.0137 6.68247 14.9751 7.7085 13.6939 7.7085C12.4128 7.7085 13.3069 6.68247 13.3069 5.41683C13.3069 4.15118 12.4128 3.12516 13.6939 3.12516Z" fill="#848484"/>
<path d="M7.87723 11.6822C4.32579 12.0032 1.62008 15.0041 1.66723 18.5697V18.7505C1.66723 19.4408 2.22688 20.0005 2.91723 20.0005C3.60758 20.0005 4.16723 19.4408 4.16723 18.7505V18.5197C4.12965 16.3304 5.74528 14.4635 7.91723 14.1863C10.2099 13.959 12.2529 15.6333 12.4802 17.926C12.4936 18.0615 12.5004 18.1976 12.5006 18.3338V18.7505C12.5006 19.4408 13.0602 20.0005 13.7506 20.0005C14.4409 20.0005 15.0006 19.4408 15.0006 18.7505V18.3338C14.9965 14.6477 12.005 11.6629 8.31903 11.667C8.17165 11.6672 8.0243 11.6722 7.87723 11.6822Z" fill="#848484"/>
<path d="M8.33398 10C11.0954 10 13.334 7.76141 13.334 5C13.334 2.23859 11.0954 0 8.33398 0C5.57258 0 3.33398 2.23859 3.33398 5C3.33672 7.76027 5.57371 9.99723 8.33398 10ZM8.33398 2.5C9.71469 2.5 10.834 3.6193 10.834 5C10.834 6.3807 9.71469 7.5 8.33398 7.5C6.95328 7.5 5.83398 6.3807 5.83398 5C5.83398 3.6193 6.95328 2.5 8.33398 2.5Z" fill="#848484"/>
</g>
<defs>
<clipPath id="clip0_10376_25216">
<rect width="20" height="20" fill="white"/>
</clipPath>
</defs>
</svg>
