<svg width="23" height="25" viewBox="0 0 23 25" fill="none" xmlns="http://www.w3.org/2000/svg">
<path d="M22.1821 13.7071L20.4294 7.4107C19.864 5.38188 18.6369 3.60019 16.943 2.34869C15.249 1.09719 13.1854 0.447658 11.08 0.503299C8.97465 0.55894 6.94825 1.31656 5.32277 2.65579C3.69729 3.99501 2.56597 5.83904 2.10855 7.89488L0.754041 13.9862C0.575347 14.7904 0.579526 15.6244 0.766267 16.4268C0.953009 17.2292 1.31755 17.9794 1.83298 18.622C2.34841 19.2647 3.00157 19.7834 3.74427 20.1399C4.48697 20.4964 5.30023 20.6815 6.12405 20.6817H6.5242C6.84255 21.7826 7.51001 22.7503 8.42604 23.4389C9.34207 24.1276 10.4571 24.5 11.6031 24.5C12.7491 24.5 13.8641 24.1276 14.7802 23.4389C15.6962 22.7503 16.3637 21.7826 16.682 20.6817H16.8751C17.7233 20.6818 18.5601 20.4857 19.3201 20.1089C20.08 19.732 20.7425 19.1846 21.2559 18.5093C21.7692 17.834 22.1195 17.0492 22.2793 16.2161C22.4391 15.3831 22.4041 14.5244 22.1771 13.7071H22.1821ZM18.8718 16.6922C18.6396 17.0005 18.3386 17.2504 17.9929 17.422C17.6471 17.5936 17.2661 17.6821 16.8801 17.6805H6.12405C5.74962 17.6805 5.37998 17.5963 5.04242 17.4343C4.70485 17.2723 4.40797 17.0365 4.17369 16.7444C3.93941 16.4523 3.7737 16.1114 3.6888 15.7467C3.6039 15.382 3.60196 15.0029 3.68314 14.6374L5.03765 8.53512C5.34868 7.13066 6.12059 5.87062 7.23051 4.95556C8.34043 4.04051 9.72455 3.52305 11.1625 3.48554C12.6005 3.44804 14.0098 3.89265 15.1659 4.74861C16.322 5.60456 17.1585 6.82266 17.5423 8.20899L19.291 14.5054C19.3965 14.8773 19.4135 15.2688 19.3407 15.6485C19.268 16.0282 19.1074 16.3856 18.8718 16.6922Z" fill="#303031"/>
</svg>
