<svg width="24" height="24" viewBox="0 0 24 24" fill="none" xmlns="http://www.w3.org/2000/svg">
<path d="M4 11.9995V14.5437C4 17.7887 4 19.4112 4.88607 20.5102C5.06508 20.7322 5.26731 20.9344 5.48933 21.1134C6.58831 21.9995 8.21082 21.9995 11.4558 21.9995C12.1614 21.9995 12.5141 21.9995 12.8372 21.8855C12.9044 21.8618 12.9702 21.8345 13.0345 21.8038C13.3436 21.6559 13.593 21.4065 14.0919 20.9076L18.8284 16.1711C19.4065 15.593 19.6955 15.304 19.8478 14.9364C20 14.5689 20 14.1601 20 13.3426V9.99951C20 6.22827 20 4.34266 18.8284 3.17108C17.6569 1.99951 15.7712 1.99951 12 1.99951M13 21.4995V20.9995C13 18.1711 13 16.7569 13.8787 15.8782C14.7574 14.9995 16.1716 14.9995 19 14.9995H19.5" stroke="#AAAAAA" stroke-width="1.5" stroke-linecap="round" stroke-linejoin="round"/>
<path d="M10 4.99951C9.41016 4.39267 7.84027 1.99951 7 1.99951C6.15973 1.99951 4.58984 4.39267 4 4.99951M7 2.99951V9.99951" stroke="#AAAAAA" stroke-width="1.5" stroke-linecap="round" stroke-linejoin="round"/>
</svg>
