<svg width="20" height="20" viewBox="0 0 20 20" fill="none" xmlns="http://www.w3.org/2000/svg">
<g clip-path="url(#clip0_10472_28580)">
<path d="M14.5833 0H7.08325C6.23931 0.000917767 5.41201 0.23483 4.69254 0.675954C3.97307 1.11708 3.38936 1.74828 3.00575 2.5H2.08325C1.75173 2.5 1.43379 2.6317 1.19937 2.86612C0.964948 3.10054 0.833252 3.41848 0.833252 3.75C0.833252 4.08152 0.964948 4.39946 1.19937 4.63388C1.43379 4.8683 1.75173 5 2.08325 5H2.49992V6.66667H2.08325C1.75173 6.66667 1.43379 6.79836 1.19937 7.03278C0.964948 7.2672 0.833252 7.58515 0.833252 7.91667C0.833252 8.24819 0.964948 8.56613 1.19937 8.80055C1.43379 9.03497 1.75173 9.16667 2.08325 9.16667H2.49992V10.8333H2.08325C1.75173 10.8333 1.43379 10.965 1.19937 11.1994C0.964948 11.4339 0.833252 11.7518 0.833252 12.0833C0.833252 12.4149 0.964948 12.7328 1.19937 12.9672C1.43379 13.2016 1.75173 13.3333 2.08325 13.3333H2.49992V15H2.08325C1.75173 15 1.43379 15.1317 1.19937 15.3661C0.964948 15.6005 0.833252 15.9185 0.833252 16.25C0.833252 16.5815 0.964948 16.8995 1.19937 17.1339C1.43379 17.3683 1.75173 17.5 2.08325 17.5H3.00575C3.38936 18.2517 3.97307 18.8829 4.69254 19.324C5.41201 19.7652 6.23931 19.9991 7.08325 20H14.5833C15.7984 19.9987 16.9634 19.5154 17.8227 18.6561C18.6819 17.7969 19.1653 16.6318 19.1666 15.4167V4.58333C19.1653 3.36816 18.6819 2.20314 17.8227 1.34389C16.9634 0.484634 15.7984 0.00132347 14.5833 0V0ZM16.6666 15.4167C16.6666 15.9692 16.4471 16.4991 16.0564 16.8898C15.6657 17.2805 15.1358 17.5 14.5833 17.5H7.08325C6.53072 17.5 6.00081 17.2805 5.61011 16.8898C5.21941 16.4991 4.99992 15.9692 4.99992 15.4167V4.58333C4.99992 4.0308 5.21941 3.50089 5.61011 3.11019C6.00081 2.71949 6.53072 2.5 7.08325 2.5H14.5833C15.1358 2.5 15.6657 2.71949 16.0564 3.11019C16.4471 3.50089 16.6666 4.0308 16.6666 4.58333V15.4167ZM8.74992 7.91667C8.74992 7.36413 8.96941 6.83423 9.36011 6.44353C9.75081 6.05283 10.2807 5.83333 10.8333 5.83333C11.3858 5.83333 11.9157 6.05283 12.3064 6.44353C12.6971 6.83423 12.9166 7.36413 12.9166 7.91667C12.9166 8.4692 12.6971 8.9991 12.3064 9.38981C11.9157 9.78051 11.3858 10 10.8333 10C10.2807 10 9.75081 9.78051 9.36011 9.38981C8.96941 8.9991 8.74992 8.4692 8.74992 7.91667ZM14.1566 13.5267C14.1692 13.6069 14.164 13.6888 14.1414 13.7668C14.1188 13.8448 14.0794 13.9168 14.0259 13.9779C13.9724 14.0389 13.9062 14.0875 13.8318 14.1201C13.7575 14.1527 13.6769 14.1686 13.5958 14.1667H8.04492C7.96377 14.1686 7.88318 14.1527 7.80884 14.1201C7.73451 14.0875 7.66825 14.0389 7.61475 13.9779C7.56126 13.9168 7.52182 13.8448 7.49924 13.7668C7.47666 13.6888 7.47149 13.6069 7.48408 13.5267C8.20158 9.97083 13.4399 9.97333 14.1566 13.5267Z" fill="black"/>
</g>
<defs>
<clipPath id="clip0_10472_28580">
<rect width="20" height="20" fill="white"/>
</clipPath>
</defs>
</svg>
