<svg width="20" height="20" viewBox="0 0 20 20" fill="none" xmlns="http://www.w3.org/2000/svg">
<g clip-path="url(#clip0_10706_21938)">
<path d="M18.3533 1.89822C17.8334 1.46499 17.224 1.15227 16.5688 0.982543C15.9137 0.812813 15.2291 0.790277 14.5642 0.916554L11.8283 1.48989C11.1486 1.61148 10.5157 1.91896 10 2.37822C9.49508 1.92234 8.87329 1.61592 8.20417 1.49322L5.40334 0.909887C4.74305 0.789819 4.06446 0.816218 3.4155 0.987218C2.76653 1.15822 2.16304 1.46965 1.64766 1.8995C1.13228 2.32936 0.717589 2.86715 0.432882 3.47488C0.148175 4.0826 0.000402281 4.74544 4.41239e-06 5.41655V13.5766C-0.00148141 14.647 0.372324 15.6842 1.0564 16.5076C1.74048 17.331 2.69155 17.8885 3.74417 18.0832L8.58334 19.0391C9.04909 19.124 9.52157 19.1667 9.995 19.1666C10.478 19.1662 10.9599 19.1224 11.435 19.0357L16.2367 18.0832C17.2921 17.8913 18.2468 17.3353 18.9344 16.5119C19.6221 15.6886 19.9992 14.6501 20 13.5774V5.41655C20.0007 4.74518 19.8535 4.0819 19.5689 3.47383C19.2843 2.86576 18.8693 2.32782 18.3533 1.89822V1.89822ZM8.75 16.5241L4.21084 15.6274C3.73074 15.5401 3.29649 15.2871 2.98384 14.9125C2.67118 14.5379 2.49995 14.0654 2.5 13.5774V5.41655C2.50154 4.86536 2.72084 4.3371 3.11013 3.94687C3.49941 3.55665 4.02714 3.33608 4.57834 3.33322C4.69404 3.333 4.80951 3.34332 4.92334 3.36405L7.72417 3.94739C8.01197 3.99985 8.27225 4.15159 8.45969 4.37619C8.64714 4.60079 8.74987 4.88401 8.75 5.17655V16.5241ZM17.5 13.5774C17.4991 14.0683 17.3253 14.5432 17.009 14.9187C16.6928 15.2942 16.2544 15.5463 15.7708 15.6307L11.25 16.5241V5.17655C11.2517 4.87853 11.3591 4.59079 11.5531 4.3645C11.747 4.13822 12.0149 3.98805 12.3092 3.94072L15.0442 3.36822C15.3443 3.31368 15.6527 3.32571 15.9476 3.40344C16.2426 3.48118 16.5168 3.62273 16.7511 3.8181C16.9853 4.01347 17.1738 4.25788 17.3032 4.53409C17.4326 4.81029 17.4998 5.11154 17.5 5.41655V13.5774Z" fill="black"/>
</g>
<defs>
<clipPath id="clip0_10706_21938">
<rect width="20" height="20" fill="white"/>
</clipPath>
</defs>
</svg>
