<svg width="20" height="24" viewBox="0 0 20 24" fill="none" xmlns="http://www.w3.org/2000/svg">
<path d="M18.41 4.04902L16.018 1.63102C14.9824 0.590578 13.576 0.0039375 12.108 0H5.50003C2.46384 0.00332812 0.00332812 2.4638 0 5.49998V18.5C0.00332812 21.5362 2.46384 23.9967 5.50003 24H14.5C17.5362 23.9967 19.9967 21.5362 20 18.5V7.917C20.0038 6.46786 19.4319 5.07652 18.41 4.04902ZM17 18.5C17 19.8807 15.8807 21 14.5 21H5.50003C4.11933 21 3.00005 19.8807 3.00005 18.5V5.49998C3 4.11928 4.11933 3 5.50003 3H11V6.99998C11 8.10455 11.8955 9 13 9H17V18.5Z" fill="#AAAAAA"/>
</svg>
