<svg width="20" height="20" viewBox="0 0 20 20" fill="none" xmlns="http://www.w3.org/2000/svg">
<g clip-path="url(#clip0_10706_21935)">
<path d="M19.1456 7.24591L13.2406 1.34093C11.4494 -0.445673 8.55014 -0.445673 6.75893 1.34093L0.853945 7.24591C0.305196 7.79173 -0.00238139 8.53439 -0.000232961 9.30841V17.9567C0.00160297 19.0856 0.916757 20 2.04562 20.0009H17.9539C19.0828 20 19.9979 19.0856 19.9997 17.9567V9.30841C20.0019 8.53439 19.6943 7.79173 19.1456 7.24591ZM17.4997 17.5009H13.3331V14.8492C13.3331 13.092 11.9086 11.6675 10.1514 11.6675H9.84811C8.09092 11.6675 6.66643 13.092 6.66643 14.8492V17.5009H2.49976V9.30841C2.50004 9.1979 2.54371 9.09196 2.62144 9.01341L8.52643 3.10842C9.3399 2.29471 10.659 2.29456 11.4727 3.10803C11.4728 3.10815 11.473 3.1083 11.4731 3.10842L17.3781 9.01341C17.4558 9.09196 17.4995 9.1979 17.4998 9.30841V17.5009H17.4997Z" fill="black"/>
</g>
<defs>
<clipPath id="clip0_10706_21935">
<rect width="20" height="20" fill="white"/>
</clipPath>
</defs>
</svg>
