<svg width="20" height="20" viewBox="0 0 20 20" fill="none" xmlns="http://www.w3.org/2000/svg">
<path d="M15.8337 2.1725V1.25C15.8337 0.918479 15.702 0.600537 15.4675 0.366117C15.2331 0.131696 14.9152 0 14.5837 0C14.2521 0 13.9342 0.131696 13.6998 0.366117C13.4654 0.600537 13.3337 0.918479 13.3337 1.25V1.66667H11.2503V1.25C11.2503 0.918479 11.1186 0.600537 10.8842 0.366117C10.6498 0.131696 10.3318 0 10.0003 0C9.6688 0 9.35086 0.131696 9.11644 0.366117C8.88202 0.600537 8.75033 0.918479 8.75033 1.25V1.66667H6.66699V1.25C6.66699 0.918479 6.5353 0.600537 6.30088 0.366117C6.06646 0.131696 5.74851 0 5.41699 0C5.08547 0 4.76753 0.131696 4.53311 0.366117C4.29869 0.600537 4.16699 0.918479 4.16699 1.25V2.1725C3.41528 2.55611 2.78407 3.13982 2.34295 3.85929C1.90182 4.57876 1.66791 5.40606 1.66699 6.25V15.4167C1.66832 16.6318 2.15163 17.7969 3.01088 18.6561C3.87014 19.5154 5.03516 19.9987 6.25033 20H13.7503C14.9654 19.9985 16.1303 19.5151 16.9895 18.6559C17.8487 17.7967 18.3321 16.6318 18.3337 15.4167V6.25C18.3327 5.40606 18.0988 4.57876 17.6577 3.85929C17.2166 3.13982 16.5854 2.55611 15.8337 2.1725V2.1725ZM15.8337 15.4167C15.8337 15.9692 15.6142 16.4991 15.2235 16.8898C14.8328 17.2805 14.3029 17.5 13.7503 17.5H6.25033C5.69779 17.5 5.16789 17.2805 4.77719 16.8898C4.38649 16.4991 4.16699 15.9692 4.16699 15.4167V6.25C4.16699 5.69747 4.38649 5.16756 4.77719 4.77686C5.16789 4.38616 5.69779 4.16667 6.25033 4.16667H13.7503C14.3029 4.16667 14.8328 4.38616 15.2235 4.77686C15.6142 5.16756 15.8337 5.69747 15.8337 6.25V15.4167ZM14.167 7.08333C14.167 7.41485 14.0353 7.7328 13.8009 7.96722C13.5665 8.20164 13.2485 8.33333 12.917 8.33333H7.08366C6.75214 8.33333 6.4342 8.20164 6.19978 7.96722C5.96535 7.7328 5.83366 7.41485 5.83366 7.08333C5.83366 6.75181 5.96535 6.43387 6.19978 6.19945C6.4342 5.96503 6.75214 5.83333 7.08366 5.83333H12.917C13.2485 5.83333 13.5665 5.96503 13.8009 6.19945C14.0353 6.43387 14.167 6.75181 14.167 7.08333V7.08333ZM11.2503 11.25C11.2503 11.5815 11.1186 11.8995 10.8842 12.1339C10.6498 12.3683 10.3318 12.5 10.0003 12.5H7.08366C6.75214 12.5 6.4342 12.3683 6.19978 12.1339C5.96535 11.8995 5.83366 11.5815 5.83366 11.25C5.83366 10.9185 5.96535 10.6005 6.19978 10.3661C6.4342 10.1317 6.75214 10 7.08366 10H10.0003C10.3318 10 10.6498 10.1317 10.8842 10.3661C11.1186 10.6005 11.2503 10.9185 11.2503 11.25Z" fill="black"/>
</svg>
