<svg width="20" height="20" viewBox="0 0 20 20" fill="none" xmlns="http://www.w3.org/2000/svg">
<g clip-path="url(#clip0_10472_28572)">
<path d="M15.4167 0H4.58333C3.36816 0.00132347 2.20314 0.484634 1.34389 1.34389C0.484634 2.20314 0.00132347 3.36816 0 4.58333L0 15.4167C0.00132347 16.6318 0.484634 17.7969 1.34389 18.6561C2.20314 19.5154 3.36816 19.9987 4.58333 20H15.4167C16.6318 19.9987 17.7969 19.5154 18.6561 18.6561C19.5154 17.7969 19.9987 16.6318 20 15.4167V4.58333C19.9987 3.36816 19.5154 2.20314 18.6561 1.34389C17.7969 0.484634 16.6318 0.00132347 15.4167 0V0ZM17.5 15.4167C17.5 15.9692 17.2805 16.4991 16.8898 16.8898C16.4991 17.2805 15.9692 17.5 15.4167 17.5H15V16.6667C15 15.3406 14.4732 14.0688 13.5355 13.1311C12.5979 12.1935 11.3261 11.6667 10 11.6667C8.67392 11.6667 7.40215 12.1935 6.46447 13.1311C5.52678 14.0688 5 15.3406 5 16.6667V17.5H4.58333C4.0308 17.5 3.50089 17.2805 3.11019 16.8898C2.71949 16.4991 2.5 15.9692 2.5 15.4167V4.58333C2.5 4.0308 2.71949 3.50089 3.11019 3.11019C3.50089 2.71949 4.0308 2.5 4.58333 2.5H15.4167C15.9692 2.5 16.4991 2.71949 16.8898 3.11019C17.2805 3.50089 17.5 4.0308 17.5 4.58333V15.4167Z" fill="#F7AE30"/>
<path d="M9.99967 10.0003C11.6105 10.0003 12.9163 8.69449 12.9163 7.08366C12.9163 5.47283 11.6105 4.16699 9.99967 4.16699C8.38884 4.16699 7.08301 5.47283 7.08301 7.08366C7.08301 8.69449 8.38884 10.0003 9.99967 10.0003Z" fill="#F7AE30"/>
</g>
<defs>
<clipPath id="clip0_10472_28572">
<rect width="20" height="20" fill="white"/>
</clipPath>
</defs>
</svg>
