<svg width="19" height="19" viewBox="0 0 19 19" fill="none" xmlns="http://www.w3.org/2000/svg">
<g clip-path="url(#clip0_10658_66921)">
<path d="M9.5 0C7.62108 0 5.78435 0.557165 4.22209 1.60104C2.65982 2.64491 1.44218 4.12861 0.723149 5.86451C0.00411622 7.60041 -0.184015 9.51054 0.182544 11.3534C0.549104 13.1962 1.45389 14.8889 2.78249 16.2175C4.11109 17.5461 5.80383 18.4509 7.64665 18.8175C9.48947 19.184 11.3996 18.9959 13.1355 18.2769C14.8714 17.5578 16.3551 16.3402 17.399 14.7779C18.4428 13.2157 19 11.3789 19 9.5C18.9973 6.98128 17.9955 4.5665 16.2145 2.78549C14.4335 1.00449 12.0187 0.00272419 9.5 0V0ZM9.5 16.625C8.09081 16.625 6.71327 16.2071 5.54157 15.4242C4.36987 14.6413 3.45664 13.5285 2.91736 12.2266C2.37809 10.9247 2.23699 9.4921 2.51191 8.10998C2.78683 6.72787 3.46542 5.45831 4.46187 4.46186C5.45832 3.46542 6.72787 2.78682 8.10999 2.51191C9.4921 2.23699 10.9247 2.37808 12.2266 2.91736C13.5285 3.45663 14.6413 4.36986 15.4242 5.54156C16.2071 6.71326 16.625 8.09081 16.625 9.5C16.6229 11.389 15.8716 13.2001 14.5358 14.5358C13.2001 15.8716 11.389 16.6229 9.5 16.625Z" fill="#848484"/>
<path d="M8.31233 8.75138L6.41233 9.93888C6.28011 10.0217 6.16549 10.1297 6.07503 10.2568C5.98457 10.3839 5.92004 10.5275 5.88512 10.6796C5.8502 10.8316 5.84557 10.989 5.87151 11.1428C5.89745 11.2967 5.95344 11.4439 6.03629 11.576C6.11906 11.7083 6.22708 11.8229 6.35417 11.9133C6.48126 12.0038 6.62492 12.0683 6.77696 12.1033C6.929 12.1382 7.08642 12.1428 7.24025 12.1169C7.39407 12.0909 7.54127 12.0349 7.67345 11.9521L9.94474 10.5271C10.1726 10.3843 10.3604 10.1858 10.4903 9.95033C10.6202 9.71486 10.688 9.45018 10.6873 9.18125V6.15234C10.6873 5.8374 10.5622 5.53535 10.3395 5.31265C10.1168 5.08996 9.81477 4.96484 9.49983 4.96484C9.18488 4.96484 8.88284 5.08996 8.66014 5.31265C8.43744 5.53535 8.31233 5.8374 8.31233 6.15234V8.75138Z" fill="#848484"/>
</g>
<defs>
<clipPath id="clip0_10658_66921">
<rect width="19" height="19" fill="white"/>
</clipPath>
</defs>
</svg>
