<svg width="26" height="26" viewBox="0 0 26 26" fill="none" xmlns="http://www.w3.org/2000/svg">
<path d="M0 3.05882C0 1.36948 1.36948 0 3.05882 0H22.9412C24.6305 0 26 1.36948 26 3.05882V22.9412C26 24.6305 24.6305 26 22.9412 26H3.05882C1.36948 26 0 24.6305 0 22.9412V3.05882Z" fill="white"/>
<path d="M18.353 13.3825C18.353 14.4383 19.2089 15.2942 20.2647 15.2942C21.3206 15.2942 22.1765 14.4383 22.1765 13.3825C22.1765 12.3266 21.3206 11.4707 20.2647 11.4707C19.2089 11.4707 18.353 12.3266 18.353 13.3825Z" fill="#303031"/>
<path d="M10.7059 13.3825C10.7059 14.4383 11.5618 15.2942 12.6177 15.2942C13.6735 15.2942 14.5294 14.4383 14.5294 13.3825C14.5294 12.3266 13.6735 11.4707 12.6177 11.4707C11.5618 11.4707 10.7059 12.3266 10.7059 13.3825Z" fill="#303031"/>
<path d="M3.82357 13.3825C3.82357 14.4383 4.67949 15.2942 5.73533 15.2942C6.79117 15.2942 7.64709 14.4383 7.64709 13.3825C7.64709 12.3266 6.79117 11.4707 5.73533 11.4707C4.67949 11.4707 3.82357 12.3266 3.82357 13.3825Z" fill="#303031"/>
</svg>
