<svg width="35" height="35" viewBox="0 0 35 35" fill="none" xmlns="http://www.w3.org/2000/svg">
<rect width="35" height="35" rx="17.5" fill="white"/>
<path d="M28.1816 18.7071L26.4289 12.4107C25.8636 10.3819 24.6364 8.60019 22.9425 7.34869C21.2485 6.09719 19.1849 5.44766 17.0795 5.5033C14.9742 5.55894 12.9478 6.31656 11.3223 7.65579C9.6968 8.99501 8.56548 10.839 8.10806 12.8949L6.75355 18.9862C6.57486 19.7904 6.57904 20.6244 6.76578 21.4268C6.95252 22.2292 7.31706 22.9794 7.83249 23.622C8.34792 24.2647 9.00109 24.7834 9.74378 25.1399C10.4865 25.4964 11.2997 25.6815 12.1236 25.6817H12.5237C12.8421 26.7826 13.5095 27.7503 14.4256 28.4389C15.3416 29.1276 16.4566 29.5 17.6026 29.5C18.7486 29.5 19.8636 29.1276 20.7797 28.4389C21.6957 27.7503 22.3632 26.7826 22.6815 25.6817H22.8746C23.7228 25.6818 24.5596 25.4857 25.3196 25.1089C26.0795 24.732 26.742 24.1846 27.2554 23.5093C27.7687 22.834 28.119 22.0492 28.2788 21.2161C28.4386 20.3831 28.4036 19.5244 28.1766 18.7071H28.1816ZM24.8713 21.6922C24.6391 22.0005 24.3382 22.2504 23.9924 22.422C23.6466 22.5936 23.2656 22.6821 22.8796 22.6805H12.1236C11.7491 22.6805 11.3795 22.5963 11.0419 22.4343C10.7044 22.2723 10.4075 22.0365 10.1732 21.7444C9.93892 21.4523 9.77322 21.1114 9.68831 20.7467C9.60341 20.382 9.60147 20.0029 9.68265 19.6374L11.0372 13.5351C11.3482 12.1307 12.1201 10.8706 13.23 9.95556C14.3399 9.04051 15.7241 8.52305 17.1621 8.48554C18.6001 8.44804 20.0093 8.89265 21.1654 9.74861C22.3215 10.6046 23.158 11.8227 23.5418 13.209L25.2905 19.5054C25.396 19.8773 25.413 20.2688 25.3403 20.6485C25.2675 21.0282 25.1069 21.3856 24.8713 21.6922Z" fill="#303031"/>
</svg>
