<svg width="20" height="20" viewBox="0 0 20 20" fill="none" xmlns="http://www.w3.org/2000/svg">
<path d="M11.7674 9.99928L14.9999 6.76345C15.2098 6.52491 15.321 6.21541 15.3108 5.89786C15.3007 5.5803 15.17 5.27852 14.9454 5.05386C14.7207 4.8292 14.4189 4.69852 14.1014 4.68838C13.7838 4.67824 13.4743 4.78941 13.2358 4.99928L9.99994 8.23178L6.75828 4.98928C6.64216 4.87317 6.50432 4.78107 6.35262 4.71823C6.20091 4.65539 6.03831 4.62305 5.87411 4.62305C5.7099 4.62305 5.54731 4.65539 5.3956 4.71823C5.2439 4.78107 5.10605 4.87317 4.98994 4.98928C4.87383 5.10539 4.78173 5.24323 4.71889 5.39494C4.65605 5.54665 4.62371 5.70924 4.62371 5.87345C4.62371 6.03765 4.65605 6.20025 4.71889 6.35195C4.78173 6.50366 4.87383 6.6415 4.98994 6.75761L8.23244 9.99928L4.99994 13.2343C4.87317 13.3476 4.77085 13.4856 4.69924 13.6398C4.62764 13.7941 4.58825 13.9613 4.5835 14.1312C4.57874 14.3012 4.60871 14.4704 4.67158 14.6284C4.73445 14.7864 4.82889 14.9299 4.94912 15.0501C5.06936 15.1703 5.21286 15.2648 5.37086 15.3276C5.52885 15.3905 5.698 15.4205 5.86798 15.4157C6.03795 15.411 6.20517 15.3716 6.35939 15.3C6.51362 15.2284 6.65162 15.1261 6.76494 14.9993L9.99994 11.7668L13.2316 14.9993C13.4661 15.2338 13.7841 15.3655 14.1158 15.3655C14.4474 15.3655 14.7654 15.2338 14.9999 14.9993C15.2344 14.7648 15.3662 14.4467 15.3662 14.1151C15.3662 13.7835 15.2344 13.4654 14.9999 13.2309L11.7674 9.99928Z" fill="black"/>
</svg>
