<svg width="18" height="18" viewBox="0 0 18 18" fill="none" xmlns="http://www.w3.org/2000/svg">
<g clip-path="url(#clip0_5755_29645)">
<path d="M14.0535 3.009L12.1838 0.58425C12.0436 0.402465 11.8637 0.25526 11.6577 0.15397C11.4517 0.0526788 11.2253 3.73116e-06 10.9958 0L7.00425 0C6.77485 0.00011845 6.54854 0.0528486 6.34272 0.154135C6.1369 0.255421 5.95705 0.402565 5.817 0.58425L3.9465 3.009C2.88527 3.05496 1.88267 3.50854 1.14752 4.27527C0.412364 5.042 0.00132263 6.06277 0 7.125L0 13.875C0.00119113 14.9687 0.436171 16.0172 1.2095 16.7905C1.98283 17.5638 3.03135 17.9988 4.125 18H13.875C14.9687 17.9988 16.0172 17.5638 16.7905 16.7905C17.5638 16.0172 17.9988 14.9687 18 13.875V7.125C17.9987 6.06277 17.5876 5.042 16.8525 4.27527C16.1173 3.50854 15.1147 3.05496 14.0535 3.009ZM15.75 13.875C15.75 14.3723 15.5525 14.8492 15.2008 15.2008C14.8492 15.5525 14.3723 15.75 13.875 15.75H4.125C3.62772 15.75 3.15081 15.5525 2.79917 15.2008C2.44754 14.8492 2.25 14.3723 2.25 13.875V7.125C2.25 6.62772 2.44754 6.15081 2.79917 5.79917C3.15081 5.44754 3.62772 5.25 4.125 5.25H13.875C14.3723 5.25 14.8492 5.44754 15.2008 5.79917C15.5525 6.15081 15.75 6.62772 15.75 7.125V13.875Z" fill="black" fill-opacity="0.7"/>
<path d="M9 6.375C8.18415 6.375 7.38662 6.61693 6.70827 7.07019C6.02992 7.52345 5.50121 8.16768 5.189 8.92143C4.87679 9.67517 4.7951 10.5046 4.95426 11.3047C5.11343 12.1049 5.50629 12.8399 6.08318 13.4168C6.66008 13.9937 7.39508 14.3866 8.19525 14.5457C8.99542 14.7049 9.82482 14.6232 10.5786 14.311C11.3323 13.9988 11.9765 13.4701 12.4298 12.7917C12.8831 12.1134 13.125 11.3158 13.125 10.5C13.1238 9.40634 12.6888 8.35783 11.9155 7.5845C11.1422 6.81117 10.0936 6.37619 9 6.375ZM9 12.375C8.62916 12.375 8.26665 12.265 7.9583 12.059C7.64996 11.853 7.40964 11.5601 7.26772 11.2175C7.12581 10.8749 7.08868 10.4979 7.16103 10.1342C7.23337 9.77049 7.41195 9.43639 7.67417 9.17417C7.9364 8.91195 8.27049 8.73337 8.6342 8.66102C8.99792 8.58868 9.37492 8.62581 9.71753 8.76772C10.0601 8.90964 10.353 9.14996 10.559 9.4583C10.765 9.76664 10.875 10.1292 10.875 10.5C10.875 10.9973 10.6775 11.4742 10.3258 11.8258C9.97419 12.1774 9.49728 12.375 9 12.375Z" fill="black" fill-opacity="0.7"/>
</g>
<defs>
<clipPath id="clip0_5755_29645">
<rect width="18" height="18" fill="white"/>
</clipPath>
</defs>
</svg>
