<svg width="10" height="10" viewBox="0 0 10 10" fill="none" xmlns="http://www.w3.org/2000/svg">
<g clip-path="url(#clip0_5915_24633)">
<path d="M8.75 4.79167V6.25H7.5C7.16848 6.25 6.85054 6.3817 6.61612 6.61612C6.3817 6.85054 6.25 7.16848 6.25 7.5V8.75H1.875C1.70924 8.75 1.55027 8.68415 1.43306 8.56694C1.31585 8.44973 1.25 8.29076 1.25 8.125V1.875C1.25 1.70924 1.31585 1.55027 1.43306 1.43306C1.55027 1.31585 1.70924 1.25 1.875 1.25H5.625C5.79076 1.25 5.94973 1.18415 6.06694 1.06694C6.18415 0.949731 6.25 0.79076 6.25 0.625C6.25 0.45924 6.18415 0.300269 6.06694 0.183058C5.94973 0.065848 5.79076 0 5.625 0L1.875 0C1.37772 0 0.900805 0.197544 0.549175 0.549175C0.197544 0.900805 0 1.37772 0 1.875L0 8.125C0 8.62228 0.197544 9.09919 0.549175 9.45082C0.900805 9.80246 1.37772 10 1.875 10H6.86833C7.36541 10 7.84215 9.80262 8.19375 9.45125L9.45083 8.19417C9.80236 7.84263 9.99989 7.36589 10 6.86875V4.79167C10 4.62591 9.93415 4.46694 9.81694 4.34972C9.69973 4.23251 9.54076 4.16667 9.375 4.16667C9.20924 4.16667 9.05027 4.23251 8.93306 4.34972C8.81585 4.46694 8.75 4.62591 8.75 4.79167Z" fill="#374957" fill-opacity="0.5"/>
<path d="M7.4144 0.747814L2.20607 5.95615C2.12792 6.03427 2.08401 6.14023 2.08398 6.25073V7.50073C2.08398 7.61124 2.12788 7.71722 2.20602 7.79536C2.28416 7.8735 2.39014 7.9174 2.50065 7.9174H3.75065C3.86115 7.91737 3.96711 7.87346 4.04523 7.79531L9.18315 2.6574C9.35701 2.48975 9.48482 2.28019 9.55428 2.04887C9.62375 1.81756 9.63254 1.57226 9.57982 1.33656C9.52083 1.11736 9.40543 0.917433 9.24512 0.756709C9.08481 0.595984 8.88519 0.480069 8.66614 0.420511C8.44708 0.360953 8.21625 0.359832 7.99663 0.417258C7.77701 0.474685 7.57626 0.588655 7.4144 0.747814Z" fill="#374957" fill-opacity="0.5"/>
</g>
<defs>
<clipPath id="clip0_5915_24633">
<rect width="10" height="10" fill="white"/>
</clipPath>
</defs>
</svg>
